<?xml version="1.0" encoding="UTF-8" standalone="no"?>
<!-- Created with Inkscape (http://www.inkscape.org/) -->

<svg
   width="512"
   height="512"
   viewBox="0 0 512 512"
   version="1.1"
   id="svg5"
   inkscape:version="1.1.1 (3bf5ae0d25, 2021-09-20, custom)"
   sodipodi:docname="logo512.svg"
   xmlns:inkscape="http://www.inkscape.org/namespaces/inkscape"
   xmlns:sodipodi="http://sodipodi.sourceforge.net/DTD/sodipodi-0.dtd"
   xmlns="http://www.w3.org/2000/svg"
   xmlns:svg="http://www.w3.org/2000/svg">
  <sodipodi:namedview
     id="namedview7"
     pagecolor="#ffffff"
     bordercolor="#666666"
     borderopacity="1.0"
     inkscape:pageshadow="2"
     inkscape:pageopacity="0.0"
     inkscape:pagecheckerboard="0"
     inkscape:document-units="px"
     showgrid="false"
     inkscape:zoom="2.1461796"
     inkscape:cx="246.4845"
     inkscape:cy="244.38775"
     inkscape:window-width="2560"
     inkscape:window-height="1375"
     inkscape:window-x="26"
     inkscape:window-y="23"
     inkscape:window-maximized="0"
     inkscape:current-layer="layer1" />
  <defs
     id="defs2">
    <clipPath
       clipPathUnits="userSpaceOnUse"
       id="clipPath23">
      <path
         d="M 0,1117.091 H 1117.091 V 0 H 0 Z"
         id="path21" />
    </clipPath>
    <clipPath
       clipPathUnits="userSpaceOnUse"
       id="clipPath291">
      <path
         d="M 0,1117.091 H 1117.091 V 0 H 0 Z"
         id="path289" />
    </clipPath>
    <clipPath
       clipPathUnits="userSpaceOnUse"
       id="clipPath331">
      <path
         d="M 0,1117.091 H 1117.091 V 0 H 0 Z"
         id="path329" />
    </clipPath>
    <clipPath
       clipPathUnits="userSpaceOnUse"
       id="clipPath733">
      <path
         d="M 0,1117.091 H 1117.091 V 0 H 0 Z"
         id="path731" />
    </clipPath>
    <clipPath
       clipPathUnits="userSpaceOnUse"
       id="clipPath745">
      <path
         d="M 0,1117.091 H 1117.091 V 0 H 0 Z"
         id="path743" />
    </clipPath>
    <clipPath
       clipPathUnits="userSpaceOnUse"
       id="clipPath785">
      <path
         d="M 0,1117.091 H 1117.091 V 0 H 0 Z"
         id="path783" />
    </clipPath>
    <clipPath
       clipPathUnits="userSpaceOnUse"
       id="clipPath870">
      <path
         d="M 0,1117.091 H 1117.091 V 0 H 0 Z"
         id="path868" />
    </clipPath>
    <clipPath
       clipPathUnits="userSpaceOnUse"
       id="clipPath882">
      <path
         d="M 0,1117.091 H 1117.091 V 0 H 0 Z"
         id="path880" />
    </clipPath>
    <clipPath
       clipPathUnits="userSpaceOnUse"
       id="clipPath922">
      <path
         d="M 0,1117.091 H 1117.091 V 0 H 0 Z"
         id="path920" />
    </clipPath>
  </defs>
  <g
     inkscape:label="Layer 1"
     inkscape:groupmode="layer"
     id="layer1"
     style="display:inline"
     sodipodi:insensitive="true">
    <g
       id="g15"
       inkscape:label="54GradSoftware-logo2"
       transform="matrix(0.44661867,0,0,-0.44661867,6.8380241,601.60344)">
      <g
         id="g17"
         transform="translate(1.6937915,-1.2348746)">
        <g
           id="g19"
           clip-path="url(#clipPath23)">
          <g
             id="g25"
             transform="translate(835.5992,734.6246)">
            <path
               d="m 0,0 c 3.869,0 7.724,-0.062 11.574,0.014 7.445,0.146 14.888,0.371 22.331,0.565 0.636,0.016 1.342,-0.126 1.896,0.098 3.803,1.543 6.671,0.781 8.381,-3.169 0.31,-0.717 1.008,-0.585 1.648,-0.644 6.419,-0.594 12.835,-1.223 19.252,-1.833 0.624,-0.059 1.272,-0.155 1.88,-0.059 3.51,0.557 4.283,0.127 5.47,-3.09 1.76,-4.771 3.6,-9.514 5.277,-14.313 0.539,-1.544 1.367,-2.016 2.962,-2.104 19.499,-1.073 38.987,-2.37 58.496,-3.229 3.713,-0.163 5.937,-1.304 7.53,-4.438 0.778,-1.529 1.859,-2.904 2.79,-4.357 2.546,-3.969 1.294,-6.874 -3.489,-7.746 -4.196,-0.766 -8.43,-1.322 -12.649,-1.958 -17.429,-2.623 -34.859,-5.243 -52.288,-7.857 -1.435,-0.215 -2.742,-0.342 -3.517,-2.002 -0.596,-1.276 -2.172,-1.456 -3.528,-1.763 -17.19,-3.884 -34.371,-7.803 -51.558,-11.703 -1.419,-0.322 -2.809,-0.524 -3.587,-2.071 -0.53,-1.054 -1.71,-1.316 -2.822,-1.385 -8.551,-0.526 -15.98,-4.033 -23.408,-8.046 -20.304,-10.968 -40.892,-21.409 -61.173,-32.417 -4.18,-2.269 -8.396,-2.633 -12.773,-3.003 -28.964,-2.451 -57.933,-4.835 -86.9,-7.248 -2.006,-0.167 -4.153,0.149 -4.318,-3.05 -0.096,-1.867 -2.016,-2.316 -3.748,-2.496 -13.01,-1.349 -26.016,-2.733 -39.026,-4.082 -14.458,-1.499 -28.916,-2.987 -43.377,-4.451 -5.135,-0.519 -5.638,-0.166 -7.388,4.648 -0.496,1.365 -1.206,2.69 -1.459,4.098 -0.518,2.88 -1.926,3.415 -4.749,2.921 -10.556,-1.849 -21.164,-3.409 -31.754,-5.067 -0.806,-0.126 -1.63,-0.279 -2.436,-0.237 -3.385,0.177 -5.062,2.576 -4.046,5.787 0.52,1.644 1.085,3.283 1.765,4.865 0.785,1.824 0.811,2.67 -1.696,2.638 -8.9,-0.111 -17.803,0.036 -26.705,0.043 -5.245,0.004 -5.911,0.504 -6.175,5.833 -0.094,1.894 -0.881,2.211 -2.532,2.184 -7.899,-0.127 -15.799,0.065 -23.698,0.045 -3.936,-0.009 -7.886,1.157 -11.811,1.891 -17.681,3.302 -35.357,6.632 -53.03,9.978 -2.18,0.413 -5.034,0.44 -4.947,3.546 0.087,3.077 2.878,2.988 5.116,3.296 28.887,3.99 57.776,7.977 86.661,11.984 1.005,0.139 2.097,0.014 2.331,1.658 0.495,3.474 1.538,4.343 5.167,4.661 4.796,0.42 9.6,0.742 14.401,1.105 10.236,0.775 20.468,1.598 30.709,2.287 2.118,0.142 2.225,0.612 1.161,2.318 -27.319,43.77 -54.6,87.565 -81.885,131.356 -0.721,1.157 -1.599,2.255 -2.097,3.503 -3.946,9.885 -12.842,13.926 -21.375,18.602 -25.804,14.142 -51.5,28.481 -77.215,42.785 -1.591,0.884 -3.105,1.205 -4.922,0.966 -32.066,-4.223 -64.13,-8.465 -96.217,-12.523 -6.402,-0.809 -12.165,-2.64 -17.779,-5.984 -27.631,-16.462 -55.448,-32.609 -83.175,-48.909 -2.37,-1.393 -5.011,-1.581 -7.559,-2.126 -40.237,-8.601 -80.487,-17.145 -120.734,-25.7 -0.889,-0.188 -1.779,-0.372 -2.674,-0.526 -1.922,-0.329 -3.511,0.185 -4.153,2.153 -0.623,1.908 0.476,3.159 2.087,3.925 5.004,2.38 10.035,4.702 15.058,7.041 26.437,12.307 52.876,24.608 79.304,36.935 1.214,0.565 2.376,0.7 3.687,0.468 6.703,-1.183 13.423,-2.273 20.121,-3.486 1.4,-0.254 2.217,0.167 3.307,1.074 9.286,7.73 18.67,15.342 28.037,22.974 37.328,30.411 74.659,60.82 111.992,91.225 22.119,18.015 44.26,36.001 66.342,54.061 2.247,1.837 4.394,2.384 7.255,1.636 34.895,-9.118 69.813,-18.145 104.727,-27.191 20.045,-5.194 40.01,-10.742 60.19,-15.35 6.145,-1.404 10.373,-3.983 13.409,-9.149 3.454,-5.876 9.41,-8.945 14.614,-12.797 41.77,-30.911 83.599,-61.741 125.412,-92.594 12.135,-8.954 24.282,-17.889 36.393,-26.873 1.06,-0.786 1.725,-1.108 3.021,-0.198 47.447,33.299 95.01,66.436 142.31,99.943 5.226,3.702 10.817,4.683 16.545,6.094 4.143,1.02 8.324,1.881 12.47,2.885 1.206,0.292 2.332,0.221 3.483,-0.122 31.783,-9.455 63.565,-18.909 95.347,-28.364 8.184,-2.435 16.261,-5.384 24.593,-7.098 4.278,-0.88 5.695,-3.146 7.149,-6.504 25.466,-58.84 50.997,-117.652 76.513,-176.47 0.253,-0.584 0.518,-1.166 0.713,-1.769 0.463,-1.438 0.221,-2.733 -1.048,-3.642 -1.285,-0.921 -2.519,-0.673 -3.734,0.293 -4.779,3.797 -8.96,8.235 -13.374,12.419 -12.265,11.625 -24.455,23.33 -36.657,35.021 -2.595,2.487 -5.853,3.951 -8.84,5.817 -23.19,14.485 -46.436,28.879 -69.626,43.361 -1.974,1.233 -3.813,1.531 -6.123,1.175 C 105.035,48.505 88.944,46.177 72.857,43.832 71.562,43.643 70.434,43.184 69.328,42.512 46.656,28.733 23.973,14.972 1.301,1.193 0.807,0.893 0.054,0.806 0,0"
               style="fill:#000000;fill-opacity:1;fill-rule:nonzero;stroke:none"
               id="path27" />
          </g>
          <g
             id="g29"
             transform="translate(692.7222,717.3663)">
            <path
               d="m 0,0 c -7.956,-4.158 -15.892,-8.357 -23.873,-12.465 -14.856,-7.647 -29.764,-15.195 -44.598,-22.886 -4.742,-2.458 -9.962,-2.651 -15.011,-3.585 -19.284,-3.564 -38.604,-6.93 -57.888,-10.488 -2.09,-0.386 -3.055,0.223 -4.107,1.915 -29.436,47.347 -58.929,94.659 -88.4,141.986 -23.086,37.072 -46.155,74.156 -69.227,111.238 -0.235,0.379 -0.411,0.795 -0.615,1.193 1.226,1.275 2.852,0.85 4.312,0.922 12.044,0.596 24.086,1.202 36.112,2.118 3.705,0.282 7.43,0.366 11.141,0.538 11.143,0.514 22.275,1.23 33.412,1.816 12.952,0.682 25.898,1.492 38.848,2.21 3.713,0.206 7.434,0.289 11.143,0.553 2.919,0.209 5.04,-0.719 6.95,-3.216 13.133,-17.174 26.31,-34.314 39.501,-51.444 15.294,-19.863 30.503,-39.792 45.804,-59.65 C -56.038,74.204 -35.691,47.566 -15.15,21.078 -10.587,15.192 -6.098,9.247 -1.562,3.338 -0.811,2.36 0.21,1.452 0,0"
               style="fill:#36c0fe;fill-opacity:1;fill-rule:nonzero;stroke:none"
               id="path31" />
          </g>
          <g
             id="g33"
             transform="translate(968.0728,855.5831)">
            <path
               d="m 0,0 c -10.336,-11.823 -20.673,-23.646 -31.008,-35.47 -9.923,-11.353 -19.83,-22.718 -29.778,-34.049 -1.767,-2.013 -4.326,-2.968 -6.547,-4.325 -24.964,-15.256 -50.053,-30.308 -74.93,-45.703 -3.508,-2.171 -6.961,-1.909 -10.572,-2.371 -5.077,-0.651 -9.102,0.814 -13.128,4.071 -7.823,6.331 -16.105,12.096 -24.197,18.096 -0.126,1.106 0.582,1.878 1.124,2.699 10.027,15.151 19.972,30.358 29.951,45.541 14.669,22.317 29.369,44.615 44.006,66.953 5.176,7.9 10.397,15.772 15.629,23.637 1.045,1.571 2.359,2.352 4.156,2.731 3.644,0.769 7.312,1.437 10.919,2.366 1.872,0.483 3.493,0.133 5.209,-0.778 C -57.349,31.813 -35.757,19.811 -13.944,8.218 -9.855,6.045 -5.772,3.854 -1.74,1.577 -1.049,1.186 -0.191,0.953 0,0"
               style="fill:#36c0fe;fill-opacity:1;fill-rule:nonzero;stroke:none"
               id="path35" />
          </g>
          <g
             id="g37"
             transform="translate(831.3257,662.0723)">
            <path
               d="m 0,0 c -10.577,-5.611 -21.145,-11.24 -31.733,-16.829 -12.288,-6.484 -24.601,-12.921 -36.884,-19.414 -1.399,-0.739 -2.814,-1.148 -4.388,-1.278 -31.76,-2.633 -63.518,-5.28 -95.271,-7.99 -1.666,-0.142 -2.596,0.126 -3.416,1.719 -9.6,18.643 -19.282,37.244 -28.934,55.859 -0.078,0.15 -0.063,0.348 -0.092,0.523 22.769,11.117 45.261,22.785 67.611,34.704 5.057,2.697 10.145,3.063 15.372,3.68 14.864,1.754 29.764,3.196 44.646,4.798 13.531,1.456 27.078,2.766 40.595,4.358 1.976,0.233 3.033,-0.662 3.843,-2.292 3.677,-7.403 7.532,-14.721 11.037,-22.205 3.93,-8.391 8.124,-16.65 12.283,-24.925 C -3.54,7.145 -2.226,3.345 0,0"
               style="fill:#b3f5fe;fill-opacity:1;fill-rule:nonzero;stroke:none"
               id="path39" />
          </g>
          <g
             id="g41"
             transform="translate(494.5117,941.3721)">
            <path
               d="m 0,0 c -1.253,-0.796 -2.655,-0.367 -3.974,-0.406 -16.332,-0.484 -32.623,-1.714 -48.93,-2.653 -10.689,-0.616 -21.381,-1.195 -32.071,-1.791 -9.332,-0.519 -18.663,-1.044 -27.996,-1.551 -0.939,-0.051 -1.742,-0.366 -2.546,-0.838 -26.46,-15.542 -52.92,-31.085 -79.398,-46.595 -26.871,-15.74 -53.766,-31.438 -80.642,-47.169 -15.514,-9.081 -31.022,-18.172 -46.501,-27.312 -1.969,-1.164 -3.762,-1.658 -6.136,-1.09 -3.659,0.874 -7.454,1.181 -11.191,1.729 8.099,5.23 15.156,11.796 22.647,17.797 14.466,11.588 28.746,23.408 43.116,35.115 14.652,11.936 29.27,23.914 43.939,35.828 15.727,12.775 31.445,25.561 47.154,38.357 13.525,11.018 27.151,21.915 40.545,33.093 2.37,1.977 4.503,2.521 7.663,1.715 19.375,-4.941 38.696,-10.087 58.06,-15.07 C -54.172,13.475 -32.06,7.875 -10.026,1.977 -7.483,1.296 -4.917,0.678 -2.245,0.712 -1.442,0.722 -0.584,0.749 0,0"
               style="fill:#4151b5;fill-opacity:1;fill-rule:nonzero;stroke:none"
               id="path43" />
          </g>
          <g
             id="g45"
             transform="translate(792.024,732.0308)">
            <path
               d="m 0,0 c -6.212,-0.72 -12.42,-1.481 -18.638,-2.153 -16.688,-1.804 -33.381,-3.571 -50.072,-5.349 -6.948,-0.741 -13.9,-1.442 -20.842,-2.233 -1.402,-0.16 -1.909,0.738 -2.569,1.597 -9.406,12.235 -18.822,24.463 -28.229,36.698 -27.499,35.772 -54.991,71.548 -82.493,107.317 -7.469,9.716 -14.963,19.413 -22.428,29.131 -0.315,0.409 -0.458,0.95 -0.682,1.43 1.164,0.634 1.884,-0.268 2.646,-0.828 15.452,-11.342 30.866,-22.735 46.292,-34.111 11.773,-8.682 23.569,-17.332 35.33,-26.028 14.171,-10.476 28.371,-20.915 42.531,-31.407 C -71.048,53.24 -42.83,32.567 -14.742,11.718 -10.366,8.471 -5.934,5.299 -1.609,1.981 -0.93,1.46 0.085,1.162 0,0"
               style="fill:#4151b5;fill-opacity:1;fill-rule:nonzero;stroke:none"
               id="path47" />
          </g>
          <g
             id="g49"
             transform="translate(1079.4302,707.4117)">
            <path
               d="m 0,0 c -2.927,2.704 -5.896,5.364 -8.774,8.12 -15.402,14.748 -30.765,29.537 -46.172,44.279 -16.257,15.557 -32.542,31.084 -48.826,46.611 -7.144,6.811 -14.318,13.591 -21.477,20.385 3.227,4.042 6.808,7.776 10.204,11.671 3.398,3.896 6.829,7.769 10.304,11.6 0.743,0.819 1.535,1.515 2.603,1.9 10.592,3.818 21.113,7.831 31.77,11.464 2.857,0.974 3.402,0.711 4.603,-2.031 8.449,-19.294 16.756,-38.65 25.169,-57.958 C -28.92,69.241 -17.377,42.384 -5.651,15.606 -3.83,11.448 -2.083,7.258 -0.292,3.086 0.122,2.123 0.74,1.105 0,0"
               style="fill:#391996;fill-opacity:1;fill-rule:nonzero;stroke:none"
               id="path51" />
          </g>
          <g
             id="g53"
             transform="translate(439.0611,826.3389)">
            <path
               d="m 0,0 c -8.434,4.617 -16.885,9.2 -25.296,13.856 -17.719,9.811 -35.417,19.659 -53.123,29.492 -1.629,0.904 -3.292,1.286 -5.219,1.028 -22.863,-3.059 -45.734,-6.065 -68.606,-9.056 -4.494,-0.588 -9.005,-1.052 -13.507,-1.573 -0.126,1.483 1.207,1.633 2.053,2.134 23.99,14.198 48.1,28.193 72.132,42.32 9.316,5.476 18.648,10.924 27.987,16.36 3.55,2.065 4.249,1.848 6.476,-1.707 C -38.298,62.849 -19.745,32.687 -0.938,2.682 -0.434,1.877 0.432,1.152 0,0"
               style="fill:#b3f5fe;fill-opacity:1;fill-rule:nonzero;stroke:none"
               id="path55" />
          </g>
          <g
             id="g57"
             transform="translate(653.4283,610.9791)">
            <path
               d="m 0,0 c -6.569,-0.732 -13.134,-1.498 -19.707,-2.189 -15.141,-1.594 -30.285,-3.148 -45.428,-4.726 -3.513,-0.366 -7.03,-0.718 -10.534,-1.167 -1.604,-0.205 -2.394,0.263 -2.978,1.89 -6.073,16.889 -12.242,33.744 -18.384,50.609 -0.337,0.924 -0.677,1.847 -1.016,2.77 6.199,1.316 12.472,2.225 18.7,3.379 14.986,2.775 29.999,5.391 44.992,8.131 3.966,0.725 4.4,0.432 6.244,-3.025 7.639,-14.325 15.017,-28.786 22.457,-43.214 1.621,-3.143 3.45,-6.178 4.92,-9.4 C -0.296,2.096 0.456,1.186 0,0"
               style="fill:#4151b5;fill-opacity:1;fill-rule:nonzero;stroke:none"
               id="path59" />
          </g>
          <g
             id="g61"
             transform="translate(853.1168,885.67)">
            <path
               d="m 0,0 c -5.727,-8.811 -11.417,-17.646 -17.187,-26.428 -20.834,-31.705 -41.696,-63.391 -62.54,-95.089 -2.306,-3.507 -2.293,-3.536 -5.673,-1.041 -13.95,10.295 -27.893,20.599 -41.839,30.898 -0.791,0.583 -1.593,1.153 -2.389,1.728 5.613,4.14 11.392,8.046 17.107,12.039 19.564,13.664 39.09,27.383 58.639,41.068 17.17,12.021 34.345,24.036 51.529,36.036 C -1.682,-0.319 -1.079,0.633 0,0"
               style="fill:#4151b5;fill-opacity:1;fill-rule:nonzero;stroke:none"
               id="path63" />
          </g>
          <g
             id="g65"
             transform="translate(867.7173,723.8306)">
            <path
               d="m 0,0 c -3.023,-9.692 -6.017,-19.395 -9.079,-29.075 -2.491,-7.873 -5.095,-15.711 -7.587,-23.584 -0.804,-2.539 -2.1,-4.036 -5.017,-4.459 -7.536,-1.093 -7.569,-1.269 -10.957,5.601 -7.987,16.199 -15.918,32.425 -23.864,48.643 -0.236,0.482 -0.387,1.005 -0.577,1.509 2.849,1.177 5.903,1.057 8.846,1.034 11.082,-0.086 22.135,0.89 33.221,0.675 3.885,-0.076 7.772,0.701 11.685,0.479 C -2.171,0.757 -0.937,0.971 0,0"
               style="fill:#36c0fe;fill-opacity:1;fill-rule:nonzero;stroke:none"
               id="path67" />
          </g>
          <g
             id="g69"
             transform="translate(494.5117,941.3721)">
            <path
               d="m 0,0 c -10.05,0.121 -19.361,3.793 -28.903,6.219 -35.9,9.123 -71.735,18.503 -107.575,27.861 -1.749,0.456 -2.73,-0.272 -3.87,-1.203 -18.295,-14.924 -36.59,-29.848 -54.9,-44.755 -29.786,-24.251 -59.585,-48.489 -89.375,-72.737 -16.972,-13.814 -33.945,-27.628 -50.883,-41.484 -1.184,-0.967 -2.358,-1.616 -3.881,-1.577 -0.863,0.177 -1.729,0.355 -3.106,0.637 5.682,4.643 10.983,8.985 16.296,13.314 26.973,21.974 53.947,43.948 80.927,65.916 35.219,28.677 70.449,57.342 105.646,86.047 1.256,1.024 2.353,1.314 3.951,0.899 C -87.586,26.644 -39.485,14.2 8.612,1.743 9.278,1.57 10.068,1.616 10.568,0.667 6.972,0.44 3.486,0.22 0,0"
               style="fill:#fefefe;fill-opacity:1;fill-rule:nonzero;stroke:none"
               id="path71" />
          </g>
          <g
             id="g73"
             transform="translate(692.7222,717.3663)">
            <path
               d="m 0,0 c -15.642,20.389 -31.272,40.787 -46.928,61.165 -24.065,31.326 -48.147,62.641 -72.225,93.958 -14.56,18.936 -29.178,37.827 -43.62,56.852 -1.657,2.184 -3.51,2.614 -5.799,2.485 -19.215,-1.085 -38.428,-2.226 -57.643,-3.318 -11.241,-0.64 -22.487,-1.212 -33.729,-1.832 -13.782,-0.76 -27.562,-1.538 -41.343,-2.305 -0.811,-0.045 -1.623,-0.064 -2.433,-0.096 -1.143,1.384 -2.035,2.91 -2.948,4.823 8.365,0.493 16.4,0.977 24.436,1.436 24.474,1.4 48.947,2.811 73.424,4.175 14.139,0.787 28.283,1.476 42.422,2.256 1.528,0.084 2.456,-0.445 3.393,-1.667 21.212,-27.673 42.469,-55.312 63.724,-82.951 23.912,-31.092 47.831,-62.177 71.746,-93.267 C -17.891,29.191 -8.268,16.66 1.367,4.139 3.487,1.383 3.502,1.394 0,0"
               style="fill:#fefefe;fill-opacity:1;fill-rule:nonzero;stroke:none"
               id="path75" />
          </g>
          <g
             id="g77"
             transform="translate(792.024,732.0308)">
            <path
               d="m 0,0 c -21.041,15.544 -42.078,31.094 -63.124,46.632 -43.561,32.158 -87.125,64.31 -130.689,96.464 -10.161,7.499 -20.325,14.993 -30.489,22.486 -0.502,0.37 -0.928,0.898 -1.649,0.855 -3.418,3.48 -6.07,7.58 -9.18,11.306 -0.033,0.903 0.334,0.986 0.986,0.479 12.425,-9.125 24.866,-18.23 37.273,-27.379 45.813,-33.781 91.617,-67.576 137.423,-101.368 C -37.824,33.522 -16.203,17.564 5.429,1.62 5.716,1.408 6.114,1.348 6.304,0.999 4.084,0.092 2.055,-0.054 0,0"
               style="fill:#fefefe;fill-opacity:1;fill-rule:nonzero;stroke:none"
               id="path79" />
          </g>
          <g
             id="g81"
             transform="translate(541.1563,655.001)">
            <path
               d="m 0,0 c -3.604,-10.35 -7.221,-20.694 -10.792,-31.056 -0.392,-1.139 -1.013,-1.517 -2.191,-1.508 -9.431,0.071 -18.861,0.099 -28.292,0.108 -1.135,0.002 -1.646,0.426 -1.699,1.573 -0.408,8.868 -0.842,17.735 -1.269,26.602 0.945,0.905 2.148,0.801 3.318,0.876 8.652,0.562 17.3,1.18 25.934,1.978 3.148,0.29 6.31,0.432 9.462,0.638 C -3.643,-0.666 -1.886,0.083 0,0"
               style="fill:#b3f5fe;fill-opacity:1;fill-rule:nonzero;stroke:none"
               id="path83" />
          </g>
          <g
             id="g85"
             transform="translate(831.3257,662.0723)">
            <path
               d="m 0,0 c -1.793,0.296 -2.044,1.939 -2.654,3.18 -8.772,17.831 -17.537,35.666 -26.206,53.548 -1.059,2.183 -2.003,2.916 -4.7,2.508 -7.405,-1.119 -14.904,-1.602 -22.359,-2.398 -7.721,-0.824 -15.431,-1.738 -23.148,-2.578 -5.659,-0.615 -11.326,-1.157 -16.985,-1.762 -7.989,-0.855 -15.975,-1.748 -23.965,-2.603 -1.619,-0.174 -3.254,-0.207 -4.873,-0.381 -6.081,-0.651 -10.472,-5.059 -15.889,-7.201 -1.338,-0.53 -2.535,-1.406 -3.825,-2.065 -17.617,-9.007 -35.236,-18.008 -52.863,-26.992 -1.002,-0.51 -1.966,-1.447 -3.252,-0.665 -1.777,2.924 -1.761,2.894 1.258,4.443 22.455,11.517 44.984,22.895 67.273,34.725 3.698,1.963 7.278,2.885 11.22,3.302 29.425,3.111 58.851,6.207 88.27,9.371 2.166,0.233 3.331,-0.215 4.37,-2.366 C -18.817,42.374 -9.142,22.761 0.442,3.104 0.932,2.101 2.534,0.681 0,0"
               style="fill:#fefefe;fill-opacity:1;fill-rule:nonzero;stroke:none"
               id="path87" />
          </g>
          <g
             id="g89"
             transform="translate(903.7613,681.7759)">
            <path
               d="m 0,0 c -14.319,-3.508 -28.689,-6.792 -43.129,-9.767 -0.554,-0.346 -1.117,-0.303 -1.685,-0.043 -0.691,2.548 0.878,4.65 1.487,6.914 0.603,2.245 1.347,4.477 2.134,6.679 1.443,4.56 3.047,9.07 4.372,13.668 2.357,7.202 4.647,14.426 6.925,21.652 0.871,1.996 1.893,1.598 2.918,0.151 1.576,-2.225 3.048,-4.52 4.561,-6.787 C -16.117,23.022 -9.672,13.675 -3.41,4.205 -2.405,2.685 -1.322,1.252 0,0"
               style="fill:#b3f5fe;fill-opacity:1;fill-rule:nonzero;stroke:none"
               id="path91" />
          </g>
          <g
             id="g93"
             transform="translate(1000.3316,768.4893)">
            <path
               d="m 0,0 c -5.494,2.802 -10.539,6.348 -15.794,9.546 -6.9,4.2 -13.789,8.424 -20.563,12.821 -3.551,2.304 -7.092,0.848 -10.568,0.375 -11.578,-1.575 -23.121,-3.404 -34.677,-5.135 -0.458,0.831 0.337,1.112 0.718,1.515 8.541,9.02 16.521,18.536 24.719,27.858 0.54,0.614 1.086,1.222 1.686,1.776 1.987,1.834 2.9,1.917 4.822,-0.086 4.524,-4.718 9.447,-9.013 14.155,-13.534 C -24.451,24.522 -13.429,13.879 -2.24,3.41 -1.254,2.487 0.255,1.788 0,0"
               style="fill:#4151b5;fill-opacity:1;fill-rule:nonzero;stroke:none"
               id="path95" />
          </g>
          <g
             id="g97"
             transform="translate(968.0728,855.5831)">
            <path
               d="m 0,0 c -15.356,8.258 -30.718,16.508 -46.069,24.775 -11.435,6.158 -22.865,12.327 -34.277,18.527 -1.048,0.569 -2.046,0.617 -3.143,0.375 -4.077,-0.896 -8.153,-1.803 -12.24,-2.652 -1.422,-0.296 -2.317,-1.016 -3.141,-2.271 -29.917,-45.532 -59.885,-91.03 -89.851,-136.531 -0.447,-0.68 -0.96,-1.317 -1.44,-1.974 -1.528,0.567 -2.104,1.081 -0.92,2.874 22.366,33.856 44.638,67.774 66.935,101.675 8.68,13.196 17.394,26.37 26.038,39.589 0.68,1.041 1.505,1.453 2.613,1.687 4.176,0.884 8.352,1.767 12.51,2.735 1.238,0.288 2.26,0.113 3.368,-0.486 C -52.547,33.676 -25.469,19.043 1.637,4.461 3.018,3.718 3.175,3.181 2.079,2.144 1.356,1.461 0.69,0.717 0,0"
               style="fill:#fefefe;fill-opacity:1;fill-rule:nonzero;stroke:none"
               id="path99" />
          </g>
          <g
             id="g101"
             transform="translate(439.0611,826.3389)">
            <path
               d="m 0,0 c -14.74,23.682 -29.473,47.368 -44.223,71.044 -4.694,7.534 -9.485,15.009 -14.109,22.586 -1.126,1.844 -2.138,2.023 -3.913,0.972 -10.914,-6.461 -21.864,-12.861 -32.813,-19.262 -14.782,-8.641 -29.59,-17.236 -44.356,-25.907 -8.811,-5.174 -17.56,-10.454 -26.337,-15.686 -2.177,-0.347 -4.353,-0.694 -6.53,-1.041 -1.01,-0.138 -2.156,-0.896 -2.8,0.62 37.855,22.182 75.717,44.352 113.543,66.582 1.726,1.015 2.471,0.884 3.558,-0.867 C -37.821,66.555 -17.587,34.115 2.626,1.663 3.438,0.361 4.203,-0.969 5.26,-2.739 2.998,-2.077 1.465,-1.108 0,0"
               style="fill:#fefefe;fill-opacity:1;fill-rule:nonzero;stroke:none"
               id="path103" />
          </g>
          <g
             id="g105"
             transform="translate(1079.4302,707.4117)">
            <path
               d="m 0,0 c -1.354,4.912 -3.772,9.392 -5.778,14.032 -19.719,45.595 -39.502,91.162 -59.261,136.739 -2.457,5.669 -2.428,5.644 -8.349,3.486 -9.64,-3.514 -19.293,-6.996 -28.959,-10.439 -0.96,-0.341 -1.433,-1.066 -2.019,-1.731 -6.187,-7.02 -12.354,-14.058 -18.553,-21.066 -0.628,-0.71 -1.108,-1.731 -2.332,-1.625 -1.48,1.089 -1.445,2.011 -0.153,3.452 7.332,8.177 14.589,16.423 21.755,24.747 1.402,1.629 3.311,1.781 5.006,2.419 9.851,3.703 19.784,7.189 29.654,10.845 1.542,0.572 2.194,0.331 2.85,-1.188 16.053,-37.145 32.151,-74.27 48.243,-111.399 C -10.466,31.125 -3.031,13.979 4.401,-3.167 4.552,-3.733 4.314,-3.897 3.786,-3.761 2.524,-2.508 1.262,-1.254 0,0"
               style="fill:#fdfdfd;fill-opacity:1;fill-rule:nonzero;stroke:none"
               id="path107" />
          </g>
          <g
             id="g109"
             transform="translate(853.1168,885.67)">
            <path
               d="m 0,0 c -19.712,-13.778 -39.432,-27.546 -59.136,-41.336 -22.608,-15.824 -45.204,-31.665 -67.8,-47.506 -0.824,-0.577 -1.615,-1.177 -2.695,-1.088 -0.068,0.055 -0.138,0.114 -0.21,0.169 -2.561,1.937 -2.558,1.933 0.187,3.855 5.132,3.594 10.257,7.198 15.389,10.791 C -75.213,-47.78 -36.16,-20.448 2.895,6.882 3.602,7.376 4.342,7.823 5.729,8.721 3.77,5.209 1.973,2.549 0,0"
               style="fill:#fefefe;fill-opacity:1;fill-rule:nonzero;stroke:none"
               id="path111" />
          </g>
          <g
             id="g113"
             transform="translate(563.5357,614.6163)">
            <path
               d="m 0,0 c -10.055,-1.552 -20.111,-3.104 -30.167,-4.655 -0.647,0.976 0.148,1.895 0.11,2.848 3.927,10.24 7.325,20.667 11.022,30.989 0.368,1.027 0.839,2.003 1.252,3.006 0.739,1.932 0.812,4.145 2.419,5.71 1.704,-0.288 1.894,-1.817 2.329,-3.025 C -9.378,24.723 -5.637,14.604 -1.973,4.458 -1.416,2.915 -0.691,1.47 0,0"
               style="fill:#36c0fe;fill-opacity:1;fill-rule:nonzero;stroke:none"
               id="path115" />
          </g>
          <g
             id="g117"
             transform="translate(154.7784,802.7847)">
            <path
               d="m 0,0 c -4.585,-2.056 -9.574,-2.547 -14.404,-3.596 -20.905,-4.541 -41.839,-8.946 -62.767,-13.378 -2.558,-0.542 -5.143,-0.953 -7.715,-1.424 -0.037,1.241 1.063,1.363 1.812,1.714 11.679,5.477 23.407,10.851 35.094,16.315 3.62,1.693 7.2,3.474 10.871,5.064 1.555,0.674 3.038,0.973 4.742,0.708 C -22.134,3.809 -11.928,2.031 -1.642,0.797 -1.008,0.721 -0.368,0.635 0,0"
               style="fill:#391996;fill-opacity:1;fill-rule:nonzero;stroke:none"
               id="path119" />
          </g>
          <g
             id="g121"
             transform="translate(653.4283,610.9791)">
            <path
               d="m 0,0 c -9.729,18.787 -19.484,37.561 -29.141,56.385 -0.934,1.822 -2.006,2.191 -3.864,1.851 -20.453,-3.742 -40.916,-7.437 -61.38,-11.124 -1.208,-0.217 -2.463,-0.817 -3.663,0.077 -1.281,4.013 -1.29,4.063 2.864,4.817 20.974,3.806 41.957,7.556 62.921,11.415 1.889,0.348 2.71,-0.161 3.558,-1.811 C -18.593,41.927 -8.396,22.287 1.77,2.632 3.094,0.073 3.074,0.063 0,0"
               style="fill:#fdfdfe;fill-opacity:1;fill-rule:nonzero;stroke:none"
               id="path123" />
          </g>
          <g
             id="g125"
             transform="translate(154.7784,802.7847)">
            <path
               d="m 0,0 c -5.471,0.087 -10.781,1.408 -16.166,2.148 -5.576,0.767 -11.129,1.705 -16.693,2.569 -0.99,0.154 -1.94,0.258 -2.923,-0.202 -16.362,-7.652 -32.735,-15.28 -49.105,-22.913 -5.081,-1.114 -10.164,-2.228 -15.246,-3.342 -0.639,-0.253 -1.227,-0.41 -1.172,0.629 16.38,7.632 32.759,15.262 49.138,22.894 5.35,2.492 10.709,4.966 16.04,7.498 1.104,0.524 2.179,0.844 3.401,0.655 C -19.902,7.943 -7.078,5.958 6.065,3.922 4.152,2.063 1.952,1.217 0,0"
               style="fill:#fdfdfd;fill-opacity:1;fill-rule:nonzero;stroke:none"
               id="path127" />
          </g>
          <g
             id="g129"
             transform="translate(1000.3316,768.4893)">
            <path
               d="m 0,0 c -5.389,5.242 -10.745,10.518 -16.173,15.719 -11.34,10.865 -22.748,21.659 -34.046,32.569 -1.609,1.554 -2.475,1.647 -3.999,-0.113 -8.136,-9.403 -16.389,-18.704 -24.631,-28.017 -0.825,-0.933 -1.835,-1.705 -2.755,-2.551 -0.425,-0.043 -0.852,-0.086 -1.28,-0.128 -0.715,-0.18 -1.556,-0.706 -1.723,0.625 10.421,11.859 20.851,23.712 31.253,35.588 0.916,1.046 1.458,1.81 2.917,0.409 C -29.216,33.741 -7.929,13.45 13.338,-6.862 13.792,-7.295 14.2,-7.775 14.629,-8.233 14.605,-9.118 14.124,-8.994 13.571,-8.713 9.048,-5.809 4.523,-2.904 0,0"
               style="fill:#fdfdfd;fill-opacity:1;fill-rule:nonzero;stroke:none"
               id="path131" />
          </g>
          <g
             id="g133"
             transform="translate(932.1324,887.4571)">
            <path
               d="m 0,0 c -6.563,3.423 -13.128,6.845 -19.692,10.268 0.142,0.337 0.286,0.674 0.429,1.011 29.782,-8.824 59.564,-17.65 90.063,-26.687 -2.875,-1.089 -5.043,-1.91 -7.212,-2.732 -1.904,-0.453 -3.732,-0.193 -5.598,0.373 C 40.886,-12.576 23.763,-7.45 6.587,-2.5 4.34,-1.853 2.129,-1.011 0,0"
               style="fill:#fdfdfd;fill-opacity:1;fill-rule:nonzero;stroke:none"
               id="path135" />
          </g>
          <g
             id="g137"
             transform="translate(973.5699,695.4464)">
            <path
               d="m 0,0 c -6.1,-1.411 -12.329,-2.025 -18.501,-2.983 -13.728,-2.131 -27.469,-4.172 -41.207,-6.232 -3.108,-0.466 -3.113,-0.433 -2.64,2.698 1.128,1.311 -0.057,3.018 0.753,4.383 l -0.008,-0.031 c 0.673,1.997 -0.165,4.511 2.053,5.982 2.141,0.569 4.326,0.412 6.482,0.273 12.805,-0.83 25.612,-1.597 38.43,-2.222 C -10.681,1.674 -6.677,1.67 -2.746,0.952 -1.78,0.775 -0.733,0.842 0,0"
               style="fill:#f05224;fill-opacity:1;fill-rule:nonzero;stroke:none"
               id="path139" />
          </g>
          <g
             id="g141"
             transform="translate(932.1324,887.4571)">
            <path
               d="m 0,0 c 6.045,-1.156 11.829,-3.252 17.717,-4.963 14.254,-4.141 28.454,-8.47 42.686,-12.688 1.022,-0.303 2.126,-0.331 3.189,-0.488 -5.605,-2.008 -11.217,-3.987 -16.799,-6.046 -1.139,-0.419 -2.026,-0.279 -3.069,0.289 C 30.591,-16.748 17.42,-9.669 4.306,-2.486 2.86,-1.694 0.831,-1.855 0,0"
               style="fill:#4151b5;fill-opacity:1;fill-rule:nonzero;stroke:none"
               id="path143" />
          </g>
          <g
             id="g145"
             transform="translate(973.5699,695.4464)">
            <path
               d="m 0,0 c -12.4,0.741 -24.798,1.529 -37.201,2.205 -7.603,0.415 -15.189,1.179 -22.814,1.125 -1.558,0.53 -0.497,1.659 -0.577,2.527 0.011,1.91 0.521,2.927 2.882,2.781 C -38.855,7.469 -19.995,6.36 -1.126,5.441 2.197,5.28 4.098,3.987 5.17,0.833 3.532,0.036 1.744,0.128 0,0"
               style="fill:#fefdfd;fill-opacity:1;fill-rule:nonzero;stroke:none"
               id="path147" />
          </g>
          <g
             id="g149"
             transform="translate(490.2896,630.6392)">
            <path
               d="m 0,0 c -6.814,0.02 -13.628,0.051 -20.442,0.046 -1.146,-0.001 -2.114,0.215 -2.939,1.1 -2.536,2.719 -5.12,5.393 -7.686,8.085 0.494,1.089 1.523,1.193 2.511,1.332 8.366,1.178 16.729,2.377 25.1,3.512 0.817,0.11 1.631,0.188 2.389,-0.252 C -0.069,11.747 -0.086,9.471 0.025,7.266 0.146,4.854 0.252,2.42 0,0"
               style="fill:#4151b5;fill-opacity:1;fill-rule:nonzero;stroke:none"
               id="path151" />
          </g>
          <g
             id="g153"
             transform="translate(867.7173,723.8306)">
            <path
               d="m 0,0 c -18.126,-0.484 -36.252,-0.971 -54.378,-1.447 -0.899,-0.023 -1.803,0.054 -2.703,0.084 -2.888,4.895 -2.889,4.932 2.604,5.086 17.735,0.494 35.47,0.964 53.205,1.43 C 1.803,5.234 1.817,5.202 0.9,2.253 0.66,1.483 0.304,0.75 0,0"
               style="fill:#fdfdfd;fill-opacity:1;fill-rule:nonzero;stroke:none"
               id="path155" />
          </g>
          <g
             id="g157"
             transform="translate(541.1563,655.001)">
            <path
               d="m 0,0 c -0.954,-1 -2.015,-1.458 -3.5,-1.558 -8.807,-0.596 -17.599,-1.421 -26.403,-2.053 -4.772,-0.343 -9.559,-0.453 -14.34,-0.669 -0.712,4.716 -0.715,4.754 4.048,5.127 13.081,1.026 26.164,2.019 39.247,3.014 C -0.243,3.915 0.47,3.868 1.264,3.868 1.09,2.429 0.759,1.147 0,0"
               style="fill:#fdfdfd;fill-opacity:1;fill-rule:nonzero;stroke:none"
               id="path159" />
          </g>
          <g
             id="g161"
             transform="translate(907.105,703.7217)">
            <path
               d="m 0,0 c -0.143,-3.199 -0.501,-6.364 -1.48,-10.198 -5.942,9.012 -11.527,17.484 -17.113,25.955 2.532,1.528 5.15,0.22 7.662,0.039 6.708,-0.482 6.701,-0.646 9.046,-7.01 C -1.197,6.92 -0.441,5.074 -0.062,3.11 0.017,2.075 0.521,1.047 0,0"
               style="fill:#391996;fill-opacity:1;fill-rule:nonzero;stroke:none"
               id="path163" />
          </g>
          <g
             id="g165"
             transform="translate(903.7613,681.7759)">
            <path
               d="m 0,0 c -1.7,-0.101 -2.251,1.281 -2.983,2.37 -8.107,12.05 -16.189,24.117 -24.316,36.154 -0.438,0.649 -0.716,2.512 -2.129,0.767 -0.468,0.761 -0.325,1.536 -0.048,2.313 0.123,1.269 0.482,2.46 1.356,3.968 2.377,-3.504 4.627,-6.798 6.854,-10.108 C -13.831,24.421 -6.418,13.364 1.042,2.338 2.062,0.831 2.373,-0.12 0,0"
               style="fill:#fcfdfd;fill-opacity:1;fill-rule:nonzero;stroke:none"
               id="path167" />
          </g>
          <g
             id="g169"
             transform="translate(489.2022,644.0704)">
            <path
               d="m 0,0 c -10.019,-1.211 -20.027,-2.502 -29.979,-4.2 -1.547,1.248 -2.893,2.685 -4.408,4.625 3.898,0.542 7.498,1.04 11.098,1.542 7.34,1.024 14.679,2.054 22.02,3.069 0.612,0.084 1.25,0.289 1.848,-0.091 C 0.766,3.252 1.7,1.472 0,0"
               style="fill:#fdfdfd;fill-opacity:1;fill-rule:nonzero;stroke:none"
               id="path171" />
          </g>
          <g
             id="g173"
             transform="translate(434.2207,636.5367)">
            <path
               d="m 0,0 c -4.521,0.766 -9.042,1.532 -13.563,2.298 -0.642,0.915 -0.099,1.176 0.711,1.275 0.846,0.103 1.726,-0.177 2.543,0.23 7.01,0.933 14.024,1.825 21.023,2.831 1.592,0.229 2.695,-0.067 3.817,-1.303 2.849,-3.137 5.864,-6.123 9.171,-9.539 -2.555,-0.172 -4.462,0.493 -6.392,0.978 -1.349,0.521 -2.605,1.188 -3.468,2.4 C 12.766,0.68 11.331,0.967 9.569,0.702 6.403,0.225 3.24,-0.462 0,0"
               style="fill:#fcfcfc;fill-opacity:1;fill-rule:nonzero;stroke:none"
               id="path175" />
          </g>
          <g
             id="g177"
             transform="translate(906.6021,706.2369)">
            <path
               d="m 0,0 c -1.277,3.478 -2.567,6.952 -3.824,10.437 -0.326,0.907 -0.704,1.55 -1.843,1.642 -4.146,0.333 -8.282,0.767 -12.423,1.163 -1.251,1.725 -2.503,3.449 -4.141,5.707 6.268,-0.643 11.827,-1.224 17.388,-1.772 1.056,-0.104 1.253,-0.895 1.539,-1.65 C -1.891,11.8 -0.519,8.056 0.946,4.35 1.511,2.923 1.616,1.573 0.97,0.178 0.704,-0.193 0.359,-0.135 0,0"
               style="fill:#fbfbfb;fill-opacity:1;fill-rule:nonzero;stroke:none"
               id="path179" />
          </g>
          <g
             id="g181"
             transform="translate(563.5357,614.6163)">
            <path
               d="m 0,0 c -1.445,0.048 -1.587,1.227 -1.95,2.229 -3.917,10.799 -7.84,21.595 -11.758,32.393 -0.396,1.093 -0.731,2.215 -1.577,3.077 -1.398,0.179 -0.819,1.098 -0.691,1.847 -0.162,1.393 0.763,2.319 1.501,3.746 2.907,-7.984 5.694,-15.636 8.477,-23.29 C -3.858,14.122 -1.701,8.248 0.385,2.348 0.648,1.601 1.797,0.496 0,0"
               style="fill:#f8fafa;fill-opacity:1;fill-rule:nonzero;stroke:none"
               id="path183" />
          </g>
          <g
             id="g185"
             transform="translate(545.941,646.9532)">
            <path
               d="m 0,0 c -0.628,-4.416 -2.633,-8.394 -4.057,-12.55 -2.504,-7.314 -5.225,-14.553 -7.856,-21.824 -1.373,0.124 -0.765,0.947 -0.573,1.623 1.818,5.31 3.639,10.619 5.453,15.93 1.657,4.85 3.293,9.706 4.972,14.548 0.307,0.883 0.494,1.911 1.598,2.256 C -0.315,0.18 -0.161,0.194 0,0"
               style="fill:#d4e6ec;fill-opacity:1;fill-rule:nonzero;stroke:none"
               id="path187" />
          </g>
          <g
             id="g189"
             transform="translate(434.2207,636.5367)">
            <path
               d="m 0,0 c 1.776,0.262 3.628,0.29 5.315,0.83 5.067,1.623 9.06,0.432 11.996,-4.061 C 11.482,-2.463 5.739,-1.243 0,0"
               style="fill:#3b1d93;fill-opacity:1;fill-rule:nonzero;stroke:none"
               id="path191" />
          </g>
          <g
             id="g193"
             transform="translate(874.2857,723.3795)">
            <path
               d="m 0,0 c 0.016,-0.771 0.032,-1.541 0.048,-2.313 -2.07,-7.352 -4.194,-14.687 -7.04,-21.788 -0.361,0.025 -0.446,0.368 -0.654,0.568 1.007,5.302 3.146,10.261 4.742,15.383 C -2.05,-5.408 -1.48,-2.531 0,0"
               style="fill:#d6e3e5;fill-opacity:1;fill-rule:nonzero;stroke:none"
               id="path195" />
          </g>
          <g
             id="g197"
             transform="translate(489.2022,644.0704)">
            <path
               d="M 0,0 C 1.331,1.516 0.105,3.33 0.579,4.945 1.771,1.754 1.108,-1.627 1.578,-4.9 1.897,-7.127 1.884,-9.407 1.949,-11.665 1.968,-12.342 2.553,-13.425 1.088,-13.432 0.249,-8.993 0.616,-4.457 0,0"
               style="fill:#abaec2;fill-opacity:1;fill-rule:nonzero;stroke:none"
               id="path199" />
          </g>
          <g
             id="g201"
             transform="translate(862.9048,685.6353)">
            <path
               d="m 0,0 c -0.239,-3.63 -2.245,-6.744 -2.994,-10.227 -0.242,-1.128 -0.575,-2.236 -0.867,-3.353 -0.694,-0.386 -1.197,-0.421 -1.119,0.609 1.428,5.021 2.889,10.032 4.837,14.884 C 0.487,1.318 0.294,0.663 0,0"
               style="fill:#d4e0e1;fill-opacity:1;fill-rule:nonzero;stroke:none"
               id="path203" />
          </g>
          <g
             id="g205"
             transform="translate(862.9048,685.6353)">
            <path
               d="M 0,0 C -0.047,0.638 -0.095,1.275 -0.143,1.913 0.842,6.109 2.22,10.182 3.734,14.211 3.952,14.022 4.17,13.833 4.389,13.644 3.445,8.929 1.901,4.407 0,0"
               style="fill:#d9e4e5;fill-opacity:1;fill-rule:nonzero;stroke:none"
               id="path207" />
          </g>
          <g
             id="g209"
             transform="translate(545.941,646.9532)">
            <path
               d="M 0,0 C -0.154,-0.011 -0.309,-0.016 -0.463,-0.016 -0.665,2.65 0.551,4.909 1.619,7.209 1.818,6.582 1.602,5.8 2.31,5.362 1.466,3.606 1.503,1.472 0,0"
               style="fill:#cce1ea;fill-opacity:1;fill-rule:nonzero;stroke:none"
               id="path211" />
          </g>
          <g
             id="g213"
             transform="translate(533.4547,614.2017)">
            <path
               d="M 0,0 C 0.028,-0.598 -0.086,-1.247 0.573,-1.622 0.354,-2.495 0.135,-3.368 -0.085,-4.241 -0.814,-4.468 -1.643,-4.686 -1.306,-3.455 -0.983,-2.272 -0.444,-1.149 0,0"
               style="fill:#cfe4ed;fill-opacity:1;fill-rule:nonzero;stroke:none"
               id="path215" />
          </g>
          <g
             id="g217"
             transform="translate(912.9781,701.3033)">
            <path
               d="M 0,0 C 0.334,-0.81 -0.276,-1.836 0.578,-2.527 0.048,-4.359 -0.481,-6.19 -1.011,-8.021 -1.094,-5.295 -0.729,-2.625 0,0"
               style="fill:#cd7f69;fill-opacity:1;fill-rule:nonzero;stroke:none"
               id="path219" />
          </g>
          <g
             id="g221"
             transform="translate(423.9121,640.3394)">
            <path
               d="M 0,0 C -0.878,-0.949 -2.766,0.286 -3.255,-1.504 -4.149,-1.681 -5.029,-1.802 -5.81,-0.757 -3.843,-0.089 -1.99,0.39 0,0"
               style="fill:#454545;fill-opacity:1;fill-rule:nonzero;stroke:none"
               id="path223" />
          </g>
          <g
             id="g225"
             transform="translate(909.8892,898.938)">
            <path
               d="M 0,0 C -0.771,0.187 -1.49,0.455 -2.048,1.405 -0.603,1.764 0.498,1.246 1.572,0.58 1.216,-0.068 0.494,0.275 0,0"
               style="fill:#2f2f2f;fill-opacity:1;fill-rule:nonzero;stroke:none"
               id="path227" />
          </g>
          <g
             id="g229"
             transform="translate(263.98,859.6651)">
            <path
               d="M 0,0 C 0.726,-1.145 1.941,-0.079 2.8,-0.62 1.491,-1.302 0.117,-1.304 -1.347,-1.168 -1.202,-0.24 -0.69,-0.008 0,0"
               style="fill:#929292;fill-opacity:1;fill-rule:nonzero;stroke:none"
               id="path231" />
          </g>
          <g
             id="g233"
             transform="translate(857.9244,672.6646)">
            <path
               d="M 0,0 C 0.235,-0.457 0.619,-0.641 1.12,-0.609 1.649,-0.625 2.18,-0.64 2.709,-0.655 2.047,-0.89 1.401,-1.219 0.72,-1.338 -0.701,-1.586 -0.583,-0.892 0,0"
               style="fill:#c7d1d2;fill-opacity:1;fill-rule:nonzero;stroke:none"
               id="path235" />
          </g>
          <g
             id="g237"
             transform="translate(911.9752,693.3126)">
            <path
               d="M 0,0 C -0.252,-1.461 0.73,-3.134 -0.753,-4.383 -0.332,-2.951 -0.917,-1.347 0,0"
               style="fill:#ca7d67;fill-opacity:1;fill-rule:nonzero;stroke:none"
               id="path239" />
          </g>
          <g
             id="g241"
             transform="translate(1013.9029,759.7764)">
            <path
               d="M 0,0 C 0.353,0.16 0.705,0.32 1.058,0.48 1.733,0.562 1.968,0.012 2.304,-0.392 2.413,-0.982 2.249,-1.298 1.583,-1.113 0.947,-0.896 0.311,-0.681 0,0"
               style="fill:#9e9e9e;fill-opacity:1;fill-rule:nonzero;stroke:none"
               id="path243" />
          </g>
          <g
             id="g245"
             transform="translate(909.8892,898.938)">
            <path
               d="M 0,0 C 0.331,0.717 1.01,0.49 1.572,0.58 1.928,0.34 2.438,-0.008 2.043,-0.394 1.283,-1.134 0.704,-0.071 0,0"
               style="fill:#8b8b8b;fill-opacity:1;fill-rule:nonzero;stroke:none"
               id="path247" />
          </g>
          <g
             id="g249"
             transform="translate(557.879,910.253)">
            <path
               d="M 0,0 C -0.329,-0.16 -0.658,-0.319 -0.986,-0.479 -1.333,-0.1 -1.679,0.278 -2.025,0.657 -2.04,1.57 -1.627,1.583 -1,1.144 -0.623,0.801 0.046,0.713 0,0"
               style="fill:#909090;fill-opacity:1;fill-rule:nonzero;stroke:none"
               id="path251" />
          </g>
          <g
             id="g253"
             transform="translate(53.4737,781.6739)">
            <path
               d="M 0,0 C 0.391,-0.209 0.781,-0.419 1.172,-0.629 0.758,-1.162 0.127,-1.108 -0.441,-1.223 -1.056,-1.385 -1.701,-1.601 -1.636,-0.552 -1.106,-0.323 -0.672,0.19 0,0"
               style="fill:#a5a5a5;fill-opacity:1;fill-rule:nonzero;stroke:none"
               id="path255" />
          </g>
          <g
             id="g257"
             transform="translate(51.8379,781.1216)">
            <path
               d="M 0,0 C 0.197,-0.583 0.765,-0.502 1.195,-0.67 0.413,-1.256 -0.434,-1.311 -1.345,-1.001 -1.246,-0.162 -0.663,-0.027 0,0"
               style="fill:#626262;fill-opacity:1;fill-rule:nonzero;stroke:none"
               id="path259" />
          </g>
          <g
             id="g261"
             transform="translate(1017.6353,758.0455)">
            <path
               d="M 0,0 C 0.704,-0.059 1.1,-0.504 1.45,-1.222 0.518,-1.744 0.029,-1.117 -0.478,-0.558 -0.561,-0.165 -0.26,-0.1 0,0"
               style="fill:#3e3e3e;fill-opacity:1;fill-rule:nonzero;stroke:none"
               id="path263" />
          </g>
          <g
             id="g265"
             transform="translate(915.7242,786.5938)">
            <path
               d="M 0,0 C 0.404,-0.676 1.179,-0.336 1.724,-0.625 1.003,-1.142 0.185,-1.52 -0.563,-0.881 -0.867,-0.622 -0.52,-0.099 0,0"
               style="fill:#8a8a8a;fill-opacity:1;fill-rule:nonzero;stroke:none"
               id="path267" />
          </g>
          <g
             id="g269"
             transform="translate(556.879,911.397)">
            <path
               d="M 0,0 C -0.404,-0.032 -0.847,0.019 -1.025,-0.487 -1.475,-0.1 -2.284,0.456 -1.69,0.911 -1.112,1.354 -0.468,0.529 0,0"
               style="fill:#565656;fill-opacity:1;fill-rule:nonzero;stroke:none"
               id="path271" />
          </g>
          <g
             id="g273"
             transform="translate(906.6021,706.2369)">
            <path
               d="M 0,0 C 0.323,0.06 0.646,0.119 0.97,0.178 1.19,-0.786 1.245,-1.72 0.503,-2.516 0.336,-1.677 0.168,-0.838 0,0"
               style="fill:#514b62;fill-opacity:1;fill-rule:nonzero;stroke:none"
               id="path275" />
          </g>
          <g
             id="g277"
             transform="translate(1017.6353,758.0455)">
            <path
               d="m 0,0 c -0.159,-0.186 -0.318,-0.372 -0.478,-0.558 -0.557,0.392 -1.114,0.784 -1.671,1.176 0.24,0.24 0.48,0.481 0.72,0.721 C -0.952,0.893 -0.477,0.446 0,0"
               style="fill:#848484;fill-opacity:1;fill-rule:nonzero;stroke:none"
               id="path279" />
          </g>
          <g
             id="g281"
             transform="translate(1083.2163,703.6505)">
            <path
               d="M 0,0 0.615,0.595 C 1.262,0.284 1.612,-0.491 1.187,-0.827 0.58,-1.308 0.16,-0.646 0,0"
               style="fill:#818181;fill-opacity:1;fill-rule:nonzero;stroke:none"
               id="path283" />
          </g>
        </g>
      </g>
      <g
         id="g285" />
      <g
         id="g325" />
      <g
         id="g725"
         inkscape:label="54GradSoftware-logo2-line (2)"
         transform="matrix(1.0021753,0,0,1.0021753,-0.36110231,-2.3777539)">
        <g
           id="g727">
          <g
             id="g729"
             clip-path="url(#clipPath733)">
            <g
               id="g735"
               transform="translate(420.7276,639.1251)">
              <path
                 d="m 0,0 c -0.002,-0.228 -0.004,-0.456 -0.006,-0.684 12.323,-2.303 24.646,-4.607 36.969,-6.91 0.144,0.274 0.288,0.548 0.433,0.823 C 33.937,-3.363 30.941,0.892 26.845,3.136 24.378,4.487 20.197,2.708 16.786,2.334 16.425,2.295 16.064,2.256 15.706,2.206 10.47,1.472 5.235,0.736 0,0 m 485.029,54.691 c 0.242,0.071 0.485,0.142 0.728,0.213 0.465,3.485 0.536,7.085 1.51,10.421 0.936,3.203 0.076,5.816 -1.058,8.591 -1.268,3.097 -1.626,7.307 -3.9,9.048 -2.357,1.805 -6.53,1.271 -9.918,1.688 -2.44,0.3 -4.894,0.482 -8.049,0.785 7.202,-10.704 13.945,-20.725 20.687,-30.746 M 34.403,4.788 c 2.219,-2.293 4.343,-3.98 5.823,-6.114 4.482,-6.465 10.437,-8.806 18.179,-7.818 3.992,0.51 8.103,0.09 12.505,0.09 C 70.541,-2.729 70.189,3.282 69.816,9.654 58.027,8.034 46.637,6.469 34.403,4.788 m 524.224,51.54 c -1.822,4.259 -2.126,4.512 -6.058,4.755 -5.165,0.318 -10.333,0.584 -15.5,0.88 -13.777,0.789 -27.552,1.61 -41.333,2.306 -0.892,0.045 -2.537,-0.743 -2.638,-1.345 -0.913,-5.425 -1.559,-10.895 -2.348,-16.833 22.848,3.446 45.242,6.823 67.877,10.237 M 144.535,-24.959 c -5.291,14.586 -10.386,28.631 -15.48,42.676 -0.213,0.017 -0.427,0.034 -0.639,0.052 -5.543,-15.758 -11.086,-31.516 -16.839,-47.874 11.271,1.76 21.886,3.417 32.958,5.146 m 346.45,284.602 c -0.062,-0.127 -0.123,-0.254 -0.184,-0.381 0.549,-0.387 1.066,-0.836 1.654,-1.153 21.072,-11.395 42.144,-22.793 63.258,-34.111 0.891,-0.477 2.303,-0.549 3.273,-0.221 5.928,2.013 11.799,4.191 17.684,6.326 1.752,0.635 3.49,1.307 5.234,1.963 -0.009,0.195 -0.019,0.391 -0.029,0.586 -30.296,8.997 -60.593,17.994 -90.89,26.991 m -749.873,-92.996 c -1.237,0.404 -1.549,0.554 -1.875,0.604 -12.298,1.915 -24.593,3.848 -36.903,5.68 -1.18,0.176 -2.588,0.006 -3.666,-0.491 -21.613,-9.972 -43.194,-20.014 -64.776,-30.052 -0.625,-0.291 -1.195,-0.698 -2.491,-1.465 1.32,0.138 1.83,0.145 2.321,0.249 32.613,6.92 65.237,13.783 97.812,20.877 3.126,0.68 5.936,2.806 9.578,4.598 M 485.953,42.445 C 475.672,57.724 465.696,72.553 455.31,87.99 449.194,68.843 443.312,50.431 437.236,31.41 c 16.469,3.731 32.264,7.308 48.717,11.035 M 122.506,19.321 c -2.871,-0.215 -5.288,-0.393 -7.705,-0.575 -12.044,-0.908 -24.086,-1.838 -36.133,-2.699 -1.646,-0.117 -2.44,-0.516 -2.319,-2.407 0.601,-9.426 1.117,-18.856 1.578,-28.289 0.086,-1.774 0.521,-2.545 2.52,-2.531 8.899,0.066 17.8,0.006 26.698,-0.128 1.846,-0.027 2.752,0.557 3.355,2.32 2.874,8.422 5.872,16.801 8.823,25.197 1.016,2.891 2.021,5.786 3.183,9.112 m 372.247,126.722 c 1.782,0.174 2.678,0.223 3.564,0.353 12.845,1.896 25.691,3.776 38.527,5.726 2.685,0.407 5.054,0.305 7.519,-1.253 14.27,-9.027 28.637,-17.902 42.978,-26.818 2.973,-1.848 5.975,-3.652 8.963,-5.476 0.098,0.149 0.196,0.299 0.293,0.449 -22.698,21.672 -45.395,43.345 -68.268,65.186 -11.169,-12.696 -22.11,-25.133 -33.576,-38.167 M 449.408,89.39 c -20.679,-0.559 -40.849,-1.104 -61.319,-1.657 0.434,-1.093 0.625,-1.688 0.897,-2.243 8.633,-17.623 17.258,-35.249 25.92,-52.857 3.376,-6.863 3.394,-6.702 10.999,-5.605 2.798,0.404 4.142,1.787 4.919,4.238 2.416,7.621 4.867,15.231 7.302,22.845 3.707,11.587 7.411,23.175 11.282,35.279 M 236.199,-28.573 c -0.643,1.361 -1.031,2.255 -1.479,3.119 -10.018,19.358 -20.079,38.695 -30.016,58.095 -1.055,2.058 -2.196,2.343 -4.286,1.959 -19.381,-3.569 -38.784,-7.031 -58.178,-10.533 -2.73,-0.492 -5.452,-1.029 -8.307,-1.57 0.223,-0.812 0.313,-1.248 0.463,-1.664 6.615,-18.272 13.291,-36.522 19.793,-54.835 0.896,-2.524 2.109,-2.933 4.559,-2.666 18.327,1.999 36.67,3.845 55.008,5.745 7.304,0.757 14.607,1.529 22.443,2.35 m 202.067,282.341 c -0.17,0.163 -0.339,0.327 -0.508,0.491 -45.636,-31.964 -91.272,-63.928 -137.219,-96.109 16.968,-12.525 33.541,-24.758 50.358,-37.171 29.223,44.415 58.296,88.602 87.369,132.789 M 23.305,184.039 c 0.175,0.169 0.35,0.337 0.526,0.505 -21.414,34.383 -42.826,68.766 -64.329,103.292 -39.052,-22.882 -77.734,-45.547 -116.416,-68.212 0.105,-0.208 0.211,-0.417 0.316,-0.625 0.893,0.102 1.789,0.191 2.681,0.309 29.55,3.892 59.095,7.826 88.661,11.594 1.992,0.254 4.41,-0.262 6.181,-1.236 24.285,-13.348 48.491,-26.84 72.717,-40.294 3.216,-1.786 6.441,-3.556 9.663,-5.333 m 640.073,-120.4 c 0.154,0.134 0.307,0.269 0.46,0.403 -0.222,0.578 -0.424,1.166 -0.671,1.734 -6.644,15.335 -13.294,30.668 -19.94,46.002 -16.688,38.506 -33.386,77.008 -50.03,115.532 -0.727,1.682 -1.499,1.821 -3.097,1.226 -10.383,-3.869 -20.82,-7.594 -31.191,-11.494 -1.507,-0.566 -2.994,-1.601 -4.082,-2.792 -4.78,-5.231 -9.412,-10.596 -14.091,-15.917 -2.74,-3.117 -5.468,-6.245 -8.363,-9.553 43.816,-41.855 87.411,-83.498 131.005,-125.141 M 377.782,92.798 c 0.046,0.219 0.092,0.437 0.136,0.656 -80.462,59.386 -160.926,118.772 -241.39,178.158 -0.154,-0.176 -0.309,-0.352 -0.464,-0.528 3.647,-4.746 7.295,-9.491 10.942,-14.236 24.151,-31.413 48.302,-62.825 72.451,-94.24 19.994,-26.01 39.994,-52.016 59.951,-78.056 1.104,-1.441 2.142,-2.001 4.068,-1.79 23.308,2.552 46.628,4.984 69.944,7.449 8.122,0.859 16.242,1.725 24.362,2.587 m -646.069,81.763 c 5.247,-0.8 9.844,-1.256 14.312,-2.277 2.488,-0.568 4.326,-0.004 6.365,1.197 22.398,13.188 44.825,26.328 67.251,39.471 46.262,27.112 92.527,54.223 138.81,81.302 0.979,0.573 2.17,1.019 3.288,1.084 34.472,1.995 68.948,3.933 103.423,5.888 6.472,0.367 12.943,0.769 19.415,1.155 -0.497,0.667 -1.034,0.938 -1.603,1.086 -48.117,12.468 -96.234,24.939 -144.376,37.31 -1.16,0.299 -2.916,-0.139 -3.873,-0.895 -7.133,-5.628 -14.131,-11.428 -21.177,-17.166 -57.433,-46.767 -114.868,-93.532 -172.3,-140.301 -3.001,-2.444 -5.977,-4.921 -9.535,-7.854 M 412.691,23.053 c -0.456,1.054 -0.747,1.807 -1.101,2.53 -9.549,19.505 -19.168,38.978 -28.584,58.547 -1.206,2.506 -2.579,2.907 -5.044,2.639 C 352.759,84.023 327.525,81.55 302.347,78.601 293.862,77.606 285.335,77.8 277.154,73.309 255.334,61.33 232.972,50.336 210.797,39.004 c -1.592,-0.814 -1.842,-1.525 -1.007,-3.127 9.908,-19.02 19.773,-38.063 29.574,-57.138 0.858,-1.671 1.833,-2.048 3.631,-1.894 31.688,2.713 63.384,5.34 95.074,8.044 1.489,0.128 3.057,0.557 4.38,1.247 18.369,9.59 36.702,19.248 55.042,28.894 4.976,2.618 9.945,5.249 15.2,8.023 m 138.458,196.36 c -1.203,0.688 -1.976,1.151 -2.767,1.578 -25.977,14.035 -51.972,28.038 -77.913,42.142 -2.532,1.377 -4.826,2.037 -7.698,1.166 -3.206,-0.973 -6.593,-1.339 -9.822,-2.25 -1.251,-0.353 -2.664,-1.224 -3.363,-2.281 -25.035,-37.901 -49.995,-75.851 -74.963,-113.794 -6.23,-9.466 -12.454,-18.935 -18.767,-28.535 0.81,-0.644 1.49,-1.221 2.206,-1.75 8.403,-6.212 16.898,-12.305 25.171,-18.686 2.977,-2.295 5.929,-3.092 9.683,-3.15 6.021,-0.094 11.094,1.436 16.258,4.643 23.699,14.717 47.635,29.05 71.466,43.552 3.311,2.015 6.376,4.215 9.013,7.26 15.996,18.479 32.218,36.764 48.358,55.117 4.31,4.9 8.603,9.814 13.138,14.988 M 275.891,79.212 c -6.974,9.078 -13.671,17.791 -20.366,26.506 -26.907,35.025 -53.808,70.054 -80.723,105.072 -21.266,27.669 -42.608,55.281 -63.744,83.051 -2.26,2.969 -4.627,3.696 -8.021,3.498 -41.641,-2.422 -83.286,-4.766 -124.93,-7.137 -3.959,-0.225 -7.915,-0.498 -12.33,-0.778 0.723,-1.246 1.186,-2.095 1.696,-2.914 23.724,-38.114 47.449,-76.228 71.182,-114.336 29.451,-47.29 58.92,-94.569 88.327,-141.887 1.116,-1.795 2.124,-2.438 4.331,-2.032 20.823,3.835 41.68,7.491 62.505,11.312 3.446,0.633 7.052,1.298 10.14,2.836 16.511,8.227 32.885,16.731 49.301,25.15 7.425,3.807 14.835,7.641 22.632,11.659 m 139.564,15.987 c 7.929,0 15.637,-0.155 23.335,0.054 5.324,0.144 10.629,0.969 15.952,1.087 1.274,0.029 2.899,-1.298 3.797,-2.444 1.102,-1.409 2.096,-2.044 3.959,-2.17 5.978,-0.402 11.934,-1.138 17.9,-1.744 0.54,-0.054 1.088,-0.181 1.62,-0.134 4.572,0.398 4.55,0.394 6.156,-3.978 1.63,-4.435 3.372,-8.829 4.959,-13.279 0.532,-1.487 1.301,-2.103 2.939,-2.188 20.322,-1.067 40.642,-2.183 60.957,-3.403 1.179,-0.071 2.656,-0.876 3.376,-1.814 1.985,-2.588 3.739,-5.371 5.401,-8.185 1.645,-2.786 -0.291,-5.643 -4.365,-6.377 -4.11,-0.742 -8.255,-1.294 -12.387,-1.916 -17.343,-2.611 -34.686,-5.218 -52.03,-7.823 -1.702,-0.256 -3.234,-0.496 -4.306,-2.292 -0.52,-0.872 -2.137,-1.258 -3.334,-1.533 -17.091,-3.93 -34.204,-7.774 -51.286,-11.746 -1.367,-0.317 -2.535,-1.445 -3.829,-2.134 -0.935,-0.498 -1.905,-1.217 -2.895,-1.283 C 422.907,21.333 415.56,17.86 408.21,13.893 388.618,3.317 368.733,-6.72 349.177,-17.362 c -4.98,-2.71 -9.97,-3.885 -15.461,-4.325 -28.894,-2.314 -57.778,-4.774 -86.666,-7.176 -1.997,-0.166 -3.904,-0.047 -4.151,-3.011 -0.169,-2.014 -2.209,-2.363 -4.013,-2.549 -11.389,-1.173 -22.775,-2.374 -34.164,-3.555 -15.908,-1.65 -31.816,-3.303 -47.727,-4.928 -5.448,-0.556 -5.848,-0.242 -7.75,4.914 -0.843,2.285 -1.212,5.497 -2.879,6.515 -1.647,1.005 -4.675,-0.13 -7.071,-0.495 -9.252,-1.41 -18.495,-2.888 -27.742,-4.334 -0.718,-0.112 -1.443,-0.239 -2.165,-0.245 -3.675,-0.032 -5.543,2.448 -4.438,5.906 0.691,2.162 1.463,4.297 2.18,6.45 0.049,0.147 -0.056,0.346 -0.159,0.886 -1.26,0 -2.59,-0.004 -3.921,0.001 -8.451,0.031 -16.902,0.064 -25.353,0.096 -4.555,0.017 -5.434,0.761 -5.603,5.319 -0.072,1.915 -0.573,2.726 -2.671,2.694 -7.811,-0.121 -15.632,-0.277 -23.434,0.015 -3.959,0.148 -7.895,1.157 -11.821,1.89 -17.686,3.298 -35.367,6.626 -53.043,9.976 -2.171,0.411 -5.067,0.405 -5.034,3.482 0.036,3.269 2.999,3.088 5.296,3.407 28.716,3.975 57.431,7.949 86.152,11.891 1.614,0.222 2.578,0.586 2.718,2.57 0.211,2.996 2.655,3.617 5.134,3.826 4.98,0.42 9.965,0.776 14.948,1.155 9.877,0.753 19.753,1.5 29.629,2.26 0.779,0.06 1.552,0.206 2.773,0.372 -2.522,4.077 -4.833,7.837 -7.166,11.584 -25.323,40.649 -50.927,81.127 -75.769,122.068 -5.926,9.765 -13.328,16.46 -23.248,21.742 -26.061,13.876 -51.718,28.512 -77.586,42.753 -1.391,0.766 -3.305,1.138 -4.878,0.936 -32.99,-4.239 -65.962,-8.608 -98.946,-12.89 -4.355,-0.565 -8.356,-1.627 -12.251,-3.934 -28.384,-16.815 -56.843,-33.506 -85.42,-49.992 -3.259,-1.88 -7.344,-2.471 -11.127,-3.281 -39.273,-8.409 -78.563,-16.74 -117.85,-25.089 -0.977,-0.209 -2.065,-0.728 -2.921,-0.48 -1.337,0.388 -3.21,1.064 -3.568,2.074 -0.342,0.968 0.606,3.119 1.6,3.7 3.284,1.916 6.838,3.371 10.298,4.979 27.856,12.946 55.702,25.911 83.602,38.76 1.493,0.688 3.49,0.707 5.177,0.478 6.661,-0.906 13.289,-2.064 19.941,-3.037 0.677,-0.099 1.597,0.218 2.142,0.663 22.118,18.025 44.188,36.108 66.301,54.137 37.751,30.78 75.527,61.53 113.293,92.291 9.16,7.461 18.358,14.877 27.458,22.412 2.255,1.866 4.452,2.29 7.283,1.552 52.499,-13.676 105.013,-27.292 157.533,-40.885 4.389,-1.136 8.866,-1.935 13.253,-3.082 1.123,-0.293 2.416,-1.085 3.021,-2.036 5.28,-8.307 12.895,-14.042 20.684,-19.771 53.298,-39.195 106.495,-78.529 159.69,-117.864 1.563,-1.156 2.518,-1.23 4.185,-0.058 34.421,24.204 68.901,48.324 103.367,72.461 12.06,8.445 24.374,16.557 36.067,25.482 5.688,4.342 11.829,6.326 18.531,7.627 4.277,0.83 8.49,1.989 12.764,2.842 1.187,0.236 2.558,0.151 3.724,-0.194 31.718,-9.386 63.421,-18.824 95.125,-28.256 8.188,-2.435 16.267,-5.393 24.603,-7.098 4.199,-0.859 5.6,-3.077 7.008,-6.327 25.493,-58.869 51.028,-117.719 76.549,-176.575 0.326,-0.748 0.901,-1.573 0.797,-2.28 -0.168,-1.148 -0.515,-2.604 -1.326,-3.22 -0.668,-0.507 -2.272,-0.296 -3.182,0.157 -1.265,0.63 -2.326,1.724 -3.374,2.723 -14.276,13.608 -28.613,27.153 -42.748,40.906 -4.021,3.914 -8.518,7.007 -13.229,9.928 -23.171,14.363 -46.32,28.759 -69.451,43.185 -1.861,1.16 -3.61,1.583 -5.863,1.239 -15.627,-2.386 -31.29,-4.553 -46.917,-6.945 -2.166,-0.331 -4.383,-1.217 -6.27,-2.353 -22.266,-13.412 -44.473,-26.921 -66.692,-40.41 -0.518,-0.315 -0.992,-0.704 -1.5,-1.068"
                 style="fill:#000000;fill-opacity:1;fill-rule:nonzero;stroke:none"
                 id="path737" />
            </g>
          </g>
        </g>
      </g>
    </g>
  </g>
  <g
     inkscape:groupmode="layer"
     id="layer3"
     inkscape:label="Layer 2"
     style="display:none"
     sodipodi:insensitive="true">
    <g
       id="g862"
       inkscape:label="54GradSoftware-logo2-line (2)"
       transform="matrix(0.44825192,0,0,-0.44825192,5.9169476,602.64845)">
      <g
         id="g864">
        <g
           id="g866"
           clip-path="url(#clipPath870)">
          <g
             id="g872"
             transform="translate(420.7276,639.1251)">
            <path
               d="m 0,0 c -0.002,-0.228 -0.004,-0.456 -0.006,-0.684 12.323,-2.303 24.646,-4.607 36.969,-6.91 0.144,0.274 0.288,0.548 0.433,0.823 C 33.937,-3.363 30.941,0.892 26.845,3.136 24.378,4.487 20.197,2.708 16.786,2.334 16.425,2.295 16.064,2.256 15.706,2.206 10.47,1.472 5.235,0.736 0,0 m 485.029,54.691 c 0.242,0.071 0.485,0.142 0.728,0.213 0.465,3.485 0.536,7.085 1.51,10.421 0.936,3.203 0.076,5.816 -1.058,8.591 -1.268,3.097 -1.626,7.307 -3.9,9.048 -2.357,1.805 -6.53,1.271 -9.918,1.688 -2.44,0.3 -4.894,0.482 -8.049,0.785 7.202,-10.704 13.945,-20.725 20.687,-30.746 M 34.403,4.788 c 2.219,-2.293 4.343,-3.98 5.823,-6.114 4.482,-6.465 10.437,-8.806 18.179,-7.818 3.992,0.51 8.103,0.09 12.505,0.09 C 70.541,-2.729 70.189,3.282 69.816,9.654 58.027,8.034 46.637,6.469 34.403,4.788 m 524.224,51.54 c -1.822,4.259 -2.126,4.512 -6.058,4.755 -5.165,0.318 -10.333,0.584 -15.5,0.88 -13.777,0.789 -27.552,1.61 -41.333,2.306 -0.892,0.045 -2.537,-0.743 -2.638,-1.345 -0.913,-5.425 -1.559,-10.895 -2.348,-16.833 22.848,3.446 45.242,6.823 67.877,10.237 M 144.535,-24.959 c -5.291,14.586 -10.386,28.631 -15.48,42.676 -0.213,0.017 -0.427,0.034 -0.639,0.052 -5.543,-15.758 -11.086,-31.516 -16.839,-47.874 11.271,1.76 21.886,3.417 32.958,5.146 m 346.45,284.602 c -0.062,-0.127 -0.123,-0.254 -0.184,-0.381 0.549,-0.387 1.066,-0.836 1.654,-1.153 21.072,-11.395 42.144,-22.793 63.258,-34.111 0.891,-0.477 2.303,-0.549 3.273,-0.221 5.928,2.013 11.799,4.191 17.684,6.326 1.752,0.635 3.49,1.307 5.234,1.963 -0.009,0.195 -0.019,0.391 -0.029,0.586 -30.296,8.997 -60.593,17.994 -90.89,26.991 m -749.873,-92.996 c -1.237,0.404 -1.549,0.554 -1.875,0.604 -12.298,1.915 -24.593,3.848 -36.903,5.68 -1.18,0.176 -2.588,0.006 -3.666,-0.491 -21.613,-9.972 -43.194,-20.014 -64.776,-30.052 -0.625,-0.291 -1.195,-0.698 -2.491,-1.465 1.32,0.138 1.83,0.145 2.321,0.249 32.613,6.92 65.237,13.783 97.812,20.877 3.126,0.68 5.936,2.806 9.578,4.598 M 485.953,42.445 C 475.672,57.724 465.696,72.553 455.31,87.99 449.194,68.843 443.312,50.431 437.236,31.41 c 16.469,3.731 32.264,7.308 48.717,11.035 M 122.506,19.321 c -2.871,-0.215 -5.288,-0.393 -7.705,-0.575 -12.044,-0.908 -24.086,-1.838 -36.133,-2.699 -1.646,-0.117 -2.44,-0.516 -2.319,-2.407 0.601,-9.426 1.117,-18.856 1.578,-28.289 0.086,-1.774 0.521,-2.545 2.52,-2.531 8.899,0.066 17.8,0.006 26.698,-0.128 1.846,-0.027 2.752,0.557 3.355,2.32 2.874,8.422 5.872,16.801 8.823,25.197 1.016,2.891 2.021,5.786 3.183,9.112 m 372.247,126.722 c 1.782,0.174 2.678,0.223 3.564,0.353 12.845,1.896 25.691,3.776 38.527,5.726 2.685,0.407 5.054,0.305 7.519,-1.253 14.27,-9.027 28.637,-17.902 42.978,-26.818 2.973,-1.848 5.975,-3.652 8.963,-5.476 0.098,0.149 0.196,0.299 0.293,0.449 -22.698,21.672 -45.395,43.345 -68.268,65.186 -11.169,-12.696 -22.11,-25.133 -33.576,-38.167 M 449.408,89.39 c -20.679,-0.559 -40.849,-1.104 -61.319,-1.657 0.434,-1.093 0.625,-1.688 0.897,-2.243 8.633,-17.623 17.258,-35.249 25.92,-52.857 3.376,-6.863 3.394,-6.702 10.999,-5.605 2.798,0.404 4.142,1.787 4.919,4.238 2.416,7.621 4.867,15.231 7.302,22.845 3.707,11.587 7.411,23.175 11.282,35.279 M 236.199,-28.573 c -0.643,1.361 -1.031,2.255 -1.479,3.119 -10.018,19.358 -20.079,38.695 -30.016,58.095 -1.055,2.058 -2.196,2.343 -4.286,1.959 -19.381,-3.569 -38.784,-7.031 -58.178,-10.533 -2.73,-0.492 -5.452,-1.029 -8.307,-1.57 0.223,-0.812 0.313,-1.248 0.463,-1.664 6.615,-18.272 13.291,-36.522 19.793,-54.835 0.896,-2.524 2.109,-2.933 4.559,-2.666 18.327,1.999 36.67,3.845 55.008,5.745 7.304,0.757 14.607,1.529 22.443,2.35 m 202.067,282.341 c -0.17,0.163 -0.339,0.327 -0.508,0.491 -45.636,-31.964 -91.272,-63.928 -137.219,-96.109 16.968,-12.525 33.541,-24.758 50.358,-37.171 29.223,44.415 58.296,88.602 87.369,132.789 M 23.305,184.039 c 0.175,0.169 0.35,0.337 0.526,0.505 -21.414,34.383 -42.826,68.766 -64.329,103.292 -39.052,-22.882 -77.734,-45.547 -116.416,-68.212 0.105,-0.208 0.211,-0.417 0.316,-0.625 0.893,0.102 1.789,0.191 2.681,0.309 29.55,3.892 59.095,7.826 88.661,11.594 1.992,0.254 4.41,-0.262 6.181,-1.236 24.285,-13.348 48.491,-26.84 72.717,-40.294 3.216,-1.786 6.441,-3.556 9.663,-5.333 m 640.073,-120.4 c 0.154,0.134 0.307,0.269 0.46,0.403 -0.222,0.578 -0.424,1.166 -0.671,1.734 -6.644,15.335 -13.294,30.668 -19.94,46.002 -16.688,38.506 -33.386,77.008 -50.03,115.532 -0.727,1.682 -1.499,1.821 -3.097,1.226 -10.383,-3.869 -20.82,-7.594 -31.191,-11.494 -1.507,-0.566 -2.994,-1.601 -4.082,-2.792 -4.78,-5.231 -9.412,-10.596 -14.091,-15.917 -2.74,-3.117 -5.468,-6.245 -8.363,-9.553 43.816,-41.855 87.411,-83.498 131.005,-125.141 M 377.782,92.798 c 0.046,0.219 0.092,0.437 0.136,0.656 -80.462,59.386 -160.926,118.772 -241.39,178.158 -0.154,-0.176 -0.309,-0.352 -0.464,-0.528 3.647,-4.746 7.295,-9.491 10.942,-14.236 24.151,-31.413 48.302,-62.825 72.451,-94.24 19.994,-26.01 39.994,-52.016 59.951,-78.056 1.104,-1.441 2.142,-2.001 4.068,-1.79 23.308,2.552 46.628,4.984 69.944,7.449 8.122,0.859 16.242,1.725 24.362,2.587 m -646.069,81.763 c 5.247,-0.8 9.844,-1.256 14.312,-2.277 2.488,-0.568 4.326,-0.004 6.365,1.197 22.398,13.188 44.825,26.328 67.251,39.471 46.262,27.112 92.527,54.223 138.81,81.302 0.979,0.573 2.17,1.019 3.288,1.084 34.472,1.995 68.948,3.933 103.423,5.888 6.472,0.367 12.943,0.769 19.415,1.155 -0.497,0.667 -1.034,0.938 -1.603,1.086 -48.117,12.468 -96.234,24.939 -144.376,37.31 -1.16,0.299 -2.916,-0.139 -3.873,-0.895 -7.133,-5.628 -14.131,-11.428 -21.177,-17.166 -57.433,-46.767 -114.868,-93.532 -172.3,-140.301 -3.001,-2.444 -5.977,-4.921 -9.535,-7.854 M 412.691,23.053 c -0.456,1.054 -0.747,1.807 -1.101,2.53 -9.549,19.505 -19.168,38.978 -28.584,58.547 -1.206,2.506 -2.579,2.907 -5.044,2.639 C 352.759,84.023 327.525,81.55 302.347,78.601 293.862,77.606 285.335,77.8 277.154,73.309 255.334,61.33 232.972,50.336 210.797,39.004 c -1.592,-0.814 -1.842,-1.525 -1.007,-3.127 9.908,-19.02 19.773,-38.063 29.574,-57.138 0.858,-1.671 1.833,-2.048 3.631,-1.894 31.688,2.713 63.384,5.34 95.074,8.044 1.489,0.128 3.057,0.557 4.38,1.247 18.369,9.59 36.702,19.248 55.042,28.894 4.976,2.618 9.945,5.249 15.2,8.023 m 138.458,196.36 c -1.203,0.688 -1.976,1.151 -2.767,1.578 -25.977,14.035 -51.972,28.038 -77.913,42.142 -2.532,1.377 -4.826,2.037 -7.698,1.166 -3.206,-0.973 -6.593,-1.339 -9.822,-2.25 -1.251,-0.353 -2.664,-1.224 -3.363,-2.281 -25.035,-37.901 -49.995,-75.851 -74.963,-113.794 -6.23,-9.466 -12.454,-18.935 -18.767,-28.535 0.81,-0.644 1.49,-1.221 2.206,-1.75 8.403,-6.212 16.898,-12.305 25.171,-18.686 2.977,-2.295 5.929,-3.092 9.683,-3.15 6.021,-0.094 11.094,1.436 16.258,4.643 23.699,14.717 47.635,29.05 71.466,43.552 3.311,2.015 6.376,4.215 9.013,7.26 15.996,18.479 32.218,36.764 48.358,55.117 4.31,4.9 8.603,9.814 13.138,14.988 M 275.891,79.212 c -6.974,9.078 -13.671,17.791 -20.366,26.506 -26.907,35.025 -53.808,70.054 -80.723,105.072 -21.266,27.669 -42.608,55.281 -63.744,83.051 -2.26,2.969 -4.627,3.696 -8.021,3.498 -41.641,-2.422 -83.286,-4.766 -124.93,-7.137 -3.959,-0.225 -7.915,-0.498 -12.33,-0.778 0.723,-1.246 1.186,-2.095 1.696,-2.914 23.724,-38.114 47.449,-76.228 71.182,-114.336 29.451,-47.29 58.92,-94.569 88.327,-141.887 1.116,-1.795 2.124,-2.438 4.331,-2.032 20.823,3.835 41.68,7.491 62.505,11.312 3.446,0.633 7.052,1.298 10.14,2.836 16.511,8.227 32.885,16.731 49.301,25.15 7.425,3.807 14.835,7.641 22.632,11.659 m 139.564,15.987 c 7.929,0 15.637,-0.155 23.335,0.054 5.324,0.144 10.629,0.969 15.952,1.087 1.274,0.029 2.899,-1.298 3.797,-2.444 1.102,-1.409 2.096,-2.044 3.959,-2.17 5.978,-0.402 11.934,-1.138 17.9,-1.744 0.54,-0.054 1.088,-0.181 1.62,-0.134 4.572,0.398 4.55,0.394 6.156,-3.978 1.63,-4.435 3.372,-8.829 4.959,-13.279 0.532,-1.487 1.301,-2.103 2.939,-2.188 20.322,-1.067 40.642,-2.183 60.957,-3.403 1.179,-0.071 2.656,-0.876 3.376,-1.814 1.985,-2.588 3.739,-5.371 5.401,-8.185 1.645,-2.786 -0.291,-5.643 -4.365,-6.377 -4.11,-0.742 -8.255,-1.294 -12.387,-1.916 -17.343,-2.611 -34.686,-5.218 -52.03,-7.823 -1.702,-0.256 -3.234,-0.496 -4.306,-2.292 -0.52,-0.872 -2.137,-1.258 -3.334,-1.533 -17.091,-3.93 -34.204,-7.774 -51.286,-11.746 -1.367,-0.317 -2.535,-1.445 -3.829,-2.134 -0.935,-0.498 -1.905,-1.217 -2.895,-1.283 C 422.907,21.333 415.56,17.86 408.21,13.893 388.618,3.317 368.733,-6.72 349.177,-17.362 c -4.98,-2.71 -9.97,-3.885 -15.461,-4.325 -28.894,-2.314 -57.778,-4.774 -86.666,-7.176 -1.997,-0.166 -3.904,-0.047 -4.151,-3.011 -0.169,-2.014 -2.209,-2.363 -4.013,-2.549 -11.389,-1.173 -22.775,-2.374 -34.164,-3.555 -15.908,-1.65 -31.816,-3.303 -47.727,-4.928 -5.448,-0.556 -5.848,-0.242 -7.75,4.914 -0.843,2.285 -1.212,5.497 -2.879,6.515 -1.647,1.005 -4.675,-0.13 -7.071,-0.495 -9.252,-1.41 -18.495,-2.888 -27.742,-4.334 -0.718,-0.112 -1.443,-0.239 -2.165,-0.245 -3.675,-0.032 -5.543,2.448 -4.438,5.906 0.691,2.162 1.463,4.297 2.18,6.45 0.049,0.147 -0.056,0.346 -0.159,0.886 -1.26,0 -2.59,-0.004 -3.921,0.001 -8.451,0.031 -16.902,0.064 -25.353,0.096 -4.555,0.017 -5.434,0.761 -5.603,5.319 -0.072,1.915 -0.573,2.726 -2.671,2.694 -7.811,-0.121 -15.632,-0.277 -23.434,0.015 -3.959,0.148 -7.895,1.157 -11.821,1.89 -17.686,3.298 -35.367,6.626 -53.043,9.976 -2.171,0.411 -5.067,0.405 -5.034,3.482 0.036,3.269 2.999,3.088 5.296,3.407 28.716,3.975 57.431,7.949 86.152,11.891 1.614,0.222 2.578,0.586 2.718,2.57 0.211,2.996 2.655,3.617 5.134,3.826 4.98,0.42 9.965,0.776 14.948,1.155 9.877,0.753 19.753,1.5 29.629,2.26 0.779,0.06 1.552,0.206 2.773,0.372 -2.522,4.077 -4.833,7.837 -7.166,11.584 -25.323,40.649 -50.927,81.127 -75.769,122.068 -5.926,9.765 -13.328,16.46 -23.248,21.742 -26.061,13.876 -51.718,28.512 -77.586,42.753 -1.391,0.766 -3.305,1.138 -4.878,0.936 -32.99,-4.239 -65.962,-8.608 -98.946,-12.89 -4.355,-0.565 -8.356,-1.627 -12.251,-3.934 -28.384,-16.815 -56.843,-33.506 -85.42,-49.992 -3.259,-1.88 -7.344,-2.471 -11.127,-3.281 -39.273,-8.409 -78.563,-16.74 -117.85,-25.089 -0.977,-0.209 -2.065,-0.728 -2.921,-0.48 -1.337,0.388 -3.21,1.064 -3.568,2.074 -0.342,0.968 0.606,3.119 1.6,3.7 3.284,1.916 6.838,3.371 10.298,4.979 27.856,12.946 55.702,25.911 83.602,38.76 1.493,0.688 3.49,0.707 5.177,0.478 6.661,-0.906 13.289,-2.064 19.941,-3.037 0.677,-0.099 1.597,0.218 2.142,0.663 22.118,18.025 44.188,36.108 66.301,54.137 37.751,30.78 75.527,61.53 113.293,92.291 9.16,7.461 18.358,14.877 27.458,22.412 2.255,1.866 4.452,2.29 7.283,1.552 52.499,-13.676 105.013,-27.292 157.533,-40.885 4.389,-1.136 8.866,-1.935 13.253,-3.082 1.123,-0.293 2.416,-1.085 3.021,-2.036 5.28,-8.307 12.895,-14.042 20.684,-19.771 53.298,-39.195 106.495,-78.529 159.69,-117.864 1.563,-1.156 2.518,-1.23 4.185,-0.058 34.421,24.204 68.901,48.324 103.367,72.461 12.06,8.445 24.374,16.557 36.067,25.482 5.688,4.342 11.829,6.326 18.531,7.627 4.277,0.83 8.49,1.989 12.764,2.842 1.187,0.236 2.558,0.151 3.724,-0.194 31.718,-9.386 63.421,-18.824 95.125,-28.256 8.188,-2.435 16.267,-5.393 24.603,-7.098 4.199,-0.859 5.6,-3.077 7.008,-6.327 25.493,-58.869 51.028,-117.719 76.549,-176.575 0.326,-0.748 0.901,-1.573 0.797,-2.28 -0.168,-1.148 -0.515,-2.604 -1.326,-3.22 -0.668,-0.507 -2.272,-0.296 -3.182,0.157 -1.265,0.63 -2.326,1.724 -3.374,2.723 -14.276,13.608 -28.613,27.153 -42.748,40.906 -4.021,3.914 -8.518,7.007 -13.229,9.928 -23.171,14.363 -46.32,28.759 -69.451,43.185 -1.861,1.16 -3.61,1.583 -5.863,1.239 -15.627,-2.386 -31.29,-4.553 -46.917,-6.945 -2.166,-0.331 -4.383,-1.217 -6.27,-2.353 -22.266,-13.412 -44.473,-26.921 -66.692,-40.41 -0.518,-0.315 -0.992,-0.704 -1.5,-1.068"
               style="fill:#000000;fill-opacity:1;fill-rule:nonzero;stroke:none"
               id="path874" />
          </g>
        </g>
      </g>
      <g
         id="g916" />
    </g>
  </g>
</svg>
