<?xml version="1.0" encoding="UTF-8" standalone="no"?>
<!-- Created with Inkscape (http://www.inkscape.org/) -->

<svg
   xmlns:dc="http://purl.org/dc/elements/1.1/"
   xmlns:cc="http://creativecommons.org/ns#"
   xmlns:rdf="http://www.w3.org/1999/02/22-rdf-syntax-ns#"
   xmlns:svg="http://www.w3.org/2000/svg"
   xmlns="http://www.w3.org/2000/svg"
   xmlns:sodipodi="http://sodipodi.sourceforge.net/DTD/sodipodi-0.dtd"
   xmlns:inkscape="http://www.inkscape.org/namespaces/inkscape"
   width="380mm"
   height="138mm"
   viewBox="0 0 380 138.00001"
   version="1.1"
   id="svg1206"
   inkscape:version="0.92.5 (2060ec1f9f, 2020-04-08)"
   sodipodi:docname="logo-möwe.svg">
  <defs
     id="defs1200">
    <clipPath
       clipPathUnits="userSpaceOnUse"
       id="clipPath18">
      <path
         d="M 0,1117.091 H 1117.091 V 0 H 0 Z"
         id="path16"
         inkscape:connector-curvature="0" />
    </clipPath>
  </defs>
  <sodipodi:namedview
     id="base"
     pagecolor="#ffffff"
     bordercolor="#666666"
     borderopacity="1.0"
     inkscape:pageopacity="0.0"
     inkscape:pageshadow="2"
     inkscape:zoom="0.35"
     inkscape:cx="400"
     inkscape:cy="560"
     inkscape:document-units="mm"
     inkscape:current-layer="layer1"
     showgrid="false"
     inkscape:window-width="1318"
     inkscape:window-height="704"
     inkscape:window-x="48"
     inkscape:window-y="27"
     inkscape:window-maximized="1" />
  <metadata
     id="metadata1203">
    <rdf:RDF>
      <cc:Work
         rdf:about="">
        <dc:format>image/svg+xml</dc:format>
        <dc:type
           rdf:resource="http://purl.org/dc/dcmitype/StillImage" />
        <dc:title></dc:title>
      </cc:Work>
    </rdf:RDF>
  </metadata>
  <g
     inkscape:label="Ebene 1"
     inkscape:groupmode="layer"
     id="layer1"
     transform="translate(0,-159)">
    <g
       transform="matrix(0.35277777,0,0,-0.35277777,-6.4304101,507.8495)"
       id="g12">
      <g
         id="g14"
         clip-path="url(#clipPath18)">
        <g
           id="g20"
           transform="translate(835.5992,734.6246)">
          <path
             d="m 0,0 c 3.869,0 7.724,-0.062 11.574,0.014 7.445,0.146 14.888,0.371 22.331,0.565 0.636,0.016 1.342,-0.126 1.896,0.098 3.803,1.543 6.671,0.781 8.381,-3.169 0.31,-0.717 1.008,-0.585 1.648,-0.644 6.419,-0.594 12.835,-1.223 19.252,-1.833 0.624,-0.059 1.272,-0.155 1.88,-0.059 3.51,0.557 4.283,0.127 5.47,-3.09 1.76,-4.771 3.6,-9.514 5.277,-14.313 0.539,-1.544 1.367,-2.016 2.962,-2.104 19.499,-1.073 38.987,-2.37 58.496,-3.229 3.713,-0.163 5.937,-1.304 7.53,-4.438 0.778,-1.529 1.859,-2.904 2.79,-4.357 2.546,-3.969 1.294,-6.874 -3.489,-7.746 -4.196,-0.766 -8.43,-1.322 -12.649,-1.958 -17.429,-2.623 -34.859,-5.243 -52.288,-7.857 -1.435,-0.215 -2.742,-0.342 -3.517,-2.002 -0.596,-1.276 -2.172,-1.456 -3.528,-1.763 -17.19,-3.884 -34.371,-7.803 -51.558,-11.703 -1.419,-0.322 -2.809,-0.524 -3.587,-2.071 -0.53,-1.054 -1.71,-1.316 -2.822,-1.385 -8.551,-0.526 -15.98,-4.033 -23.408,-8.046 -20.304,-10.968 -40.892,-21.409 -61.173,-32.417 -4.18,-2.269 -8.396,-2.633 -12.773,-3.003 -28.964,-2.451 -57.933,-4.835 -86.9,-7.248 -2.006,-0.167 -4.153,0.149 -4.318,-3.05 -0.096,-1.867 -2.016,-2.316 -3.748,-2.496 -13.01,-1.349 -26.016,-2.733 -39.026,-4.082 -14.458,-1.499 -28.916,-2.987 -43.377,-4.451 -5.135,-0.519 -5.638,-0.166 -7.388,4.648 -0.496,1.365 -1.206,2.69 -1.459,4.098 -0.518,2.88 -1.926,3.415 -4.749,2.921 -10.556,-1.849 -21.164,-3.409 -31.754,-5.067 -0.806,-0.126 -1.63,-0.279 -2.436,-0.237 -3.385,0.177 -5.062,2.576 -4.046,5.787 0.52,1.644 1.085,3.283 1.765,4.865 0.785,1.824 0.811,2.67 -1.696,2.638 -8.9,-0.111 -17.803,0.036 -26.705,0.043 -5.245,0.004 -5.911,0.504 -6.175,5.833 -0.094,1.894 -0.881,2.211 -2.532,2.184 -7.899,-0.127 -15.799,0.065 -23.698,0.045 -3.936,-0.009 -7.886,1.157 -11.811,1.891 -17.681,3.302 -35.357,6.632 -53.03,9.978 -2.18,0.413 -5.034,0.44 -4.947,3.546 0.087,3.077 2.878,2.988 5.116,3.296 28.887,3.99 57.776,7.977 86.661,11.984 1.005,0.139 2.097,0.014 2.331,1.658 0.495,3.474 1.538,4.343 5.167,4.661 4.796,0.42 9.6,0.742 14.401,1.105 10.236,0.775 20.468,1.598 30.709,2.287 2.118,0.142 2.225,0.612 1.161,2.318 -27.319,43.77 -54.6,87.565 -81.885,131.356 -0.721,1.157 -1.599,2.255 -2.097,3.503 -3.946,9.885 -12.842,13.926 -21.375,18.602 -25.804,14.142 -51.5,28.481 -77.215,42.785 -1.591,0.884 -3.105,1.205 -4.922,0.966 -32.066,-4.223 -64.13,-8.465 -96.217,-12.523 -6.402,-0.809 -12.165,-2.64 -17.779,-5.984 -27.631,-16.462 -55.448,-32.609 -83.175,-48.909 -2.37,-1.393 -5.011,-1.581 -7.559,-2.126 -40.237,-8.601 -80.487,-17.145 -120.734,-25.7 -0.889,-0.188 -1.779,-0.372 -2.674,-0.526 -1.922,-0.329 -3.511,0.185 -4.153,2.153 -0.623,1.908 0.476,3.159 2.087,3.925 5.004,2.38 10.035,4.702 15.058,7.041 26.437,12.307 52.876,24.608 79.304,36.935 1.214,0.565 2.376,0.7 3.687,0.468 6.703,-1.183 13.423,-2.273 20.121,-3.486 1.4,-0.254 2.217,0.167 3.307,1.074 9.286,7.73 18.67,15.342 28.037,22.974 37.328,30.411 74.659,60.82 111.992,91.225 22.119,18.015 44.26,36.001 66.342,54.061 2.247,1.837 4.394,2.384 7.255,1.636 34.895,-9.118 69.813,-18.145 104.727,-27.191 20.045,-5.194 40.01,-10.742 60.19,-15.35 6.145,-1.404 10.373,-3.983 13.409,-9.149 3.454,-5.876 9.41,-8.945 14.614,-12.797 41.77,-30.911 83.599,-61.741 125.412,-92.594 12.135,-8.954 24.282,-17.889 36.393,-26.873 1.06,-0.786 1.725,-1.108 3.021,-0.198 47.447,33.299 95.01,66.436 142.31,99.943 5.226,3.702 10.817,4.683 16.545,6.094 4.143,1.02 8.324,1.881 12.47,2.885 1.206,0.292 2.332,0.221 3.483,-0.122 31.783,-9.455 63.565,-18.909 95.347,-28.364 8.184,-2.435 16.261,-5.384 24.593,-7.098 4.278,-0.88 5.695,-3.146 7.149,-6.504 25.466,-58.84 50.997,-117.652 76.513,-176.47 0.253,-0.584 0.518,-1.166 0.713,-1.769 0.463,-1.438 0.221,-2.733 -1.048,-3.642 -1.285,-0.921 -2.519,-0.673 -3.734,0.293 -4.779,3.797 -8.96,8.235 -13.374,12.419 -12.265,11.625 -24.455,23.33 -36.657,35.021 -2.595,2.487 -5.853,3.951 -8.84,5.817 -23.19,14.485 -46.436,28.879 -69.626,43.361 -1.974,1.233 -3.813,1.531 -6.123,1.175 C 105.035,48.505 88.944,46.177 72.857,43.832 71.562,43.643 70.434,43.184 69.328,42.512 46.656,28.733 23.973,14.972 1.301,1.193 0.807,0.893 0.054,0.806 0,0"
             style="fill:#000000;fill-opacity:1;fill-rule:nonzero;stroke:none"
             id="path22"
             inkscape:connector-curvature="0" />
        </g>
        <g
           id="g24"
           transform="translate(692.7222,717.3663)">
          <path
             d="m 0,0 c -7.956,-4.158 -15.892,-8.357 -23.873,-12.465 -14.856,-7.647 -29.764,-15.195 -44.598,-22.886 -4.742,-2.458 -9.962,-2.651 -15.011,-3.585 -19.284,-3.564 -38.604,-6.93 -57.888,-10.488 -2.09,-0.386 -3.055,0.223 -4.107,1.915 -29.436,47.347 -58.929,94.659 -88.4,141.986 -23.086,37.072 -46.155,74.156 -69.227,111.238 -0.235,0.379 -0.411,0.795 -0.615,1.193 1.226,1.275 2.852,0.85 4.312,0.922 12.044,0.596 24.086,1.202 36.112,2.118 3.705,0.282 7.43,0.366 11.141,0.538 11.143,0.514 22.275,1.23 33.412,1.816 12.952,0.682 25.898,1.492 38.848,2.21 3.713,0.206 7.434,0.289 11.143,0.553 2.919,0.209 5.04,-0.719 6.95,-3.216 13.133,-17.174 26.31,-34.314 39.501,-51.444 15.294,-19.863 30.503,-39.792 45.804,-59.65 C -56.038,74.204 -35.691,47.566 -15.15,21.078 -10.587,15.192 -6.098,9.247 -1.562,3.338 -0.811,2.36 0.21,1.452 0,0"
             style="fill:#36c0fe;fill-opacity:1;fill-rule:nonzero;stroke:none"
             id="path26"
             inkscape:connector-curvature="0" />
        </g>
        <g
           id="g28"
           transform="translate(968.0728,855.5831)">
          <path
             d="m 0,0 c -10.336,-11.823 -20.673,-23.646 -31.008,-35.47 -9.923,-11.353 -19.83,-22.718 -29.778,-34.049 -1.767,-2.013 -4.326,-2.968 -6.547,-4.325 -24.964,-15.256 -50.053,-30.308 -74.93,-45.703 -3.508,-2.171 -6.961,-1.909 -10.572,-2.371 -5.077,-0.651 -9.102,0.814 -13.128,4.071 -7.823,6.331 -16.105,12.096 -24.197,18.096 -0.126,1.106 0.582,1.878 1.124,2.699 10.027,15.151 19.972,30.358 29.951,45.541 14.669,22.317 29.369,44.615 44.006,66.953 5.176,7.9 10.397,15.772 15.629,23.637 1.045,1.571 2.359,2.352 4.156,2.731 3.644,0.769 7.312,1.437 10.919,2.366 1.872,0.483 3.493,0.133 5.209,-0.778 C -57.349,31.813 -35.757,19.811 -13.944,8.218 -9.855,6.045 -5.772,3.854 -1.74,1.577 -1.049,1.186 -0.191,0.953 0,0"
             style="fill:#36c0fe;fill-opacity:1;fill-rule:nonzero;stroke:none"
             id="path30"
             inkscape:connector-curvature="0" />
        </g>
        <g
           id="g32"
           transform="translate(831.3257,662.0723)">
          <path
             d="m 0,0 c -10.577,-5.611 -21.145,-11.24 -31.733,-16.829 -12.288,-6.484 -24.601,-12.921 -36.884,-19.414 -1.399,-0.739 -2.814,-1.148 -4.388,-1.278 -31.76,-2.633 -63.518,-5.28 -95.271,-7.99 -1.666,-0.142 -2.596,0.126 -3.416,1.719 -9.6,18.643 -19.282,37.244 -28.934,55.859 -0.078,0.15 -0.063,0.348 -0.092,0.523 22.769,11.117 45.261,22.785 67.611,34.704 5.057,2.697 10.145,3.063 15.372,3.68 14.864,1.754 29.764,3.196 44.646,4.798 13.531,1.456 27.078,2.766 40.595,4.358 1.976,0.233 3.033,-0.662 3.843,-2.292 3.677,-7.403 7.532,-14.721 11.037,-22.205 3.93,-8.391 8.124,-16.65 12.283,-24.925 C -3.54,7.145 -2.226,3.345 0,0"
             style="fill:#b3f5fe;fill-opacity:1;fill-rule:nonzero;stroke:none"
             id="path34"
             inkscape:connector-curvature="0" />
        </g>
        <g
           id="g36"
           transform="translate(494.5117,941.3721)">
          <path
             d="m 0,0 c -1.253,-0.796 -2.655,-0.367 -3.974,-0.406 -16.332,-0.484 -32.623,-1.714 -48.93,-2.653 -10.689,-0.616 -21.381,-1.195 -32.071,-1.791 -9.332,-0.519 -18.663,-1.044 -27.996,-1.551 -0.939,-0.051 -1.742,-0.366 -2.546,-0.838 -26.46,-15.542 -52.92,-31.085 -79.398,-46.595 -26.871,-15.74 -53.766,-31.438 -80.642,-47.169 -15.514,-9.081 -31.022,-18.172 -46.501,-27.312 -1.969,-1.164 -3.762,-1.658 -6.136,-1.09 -3.659,0.874 -7.454,1.181 -11.191,1.729 8.099,5.23 15.156,11.796 22.647,17.797 14.466,11.588 28.746,23.408 43.116,35.115 14.652,11.936 29.27,23.914 43.939,35.828 15.727,12.775 31.445,25.561 47.154,38.357 13.525,11.018 27.151,21.915 40.545,33.093 2.37,1.977 4.503,2.521 7.663,1.715 19.375,-4.941 38.696,-10.087 58.06,-15.07 C -54.172,13.475 -32.06,7.875 -10.026,1.977 -7.483,1.296 -4.917,0.678 -2.245,0.712 -1.442,0.722 -0.584,0.749 0,0"
             style="fill:#4151b5;fill-opacity:1;fill-rule:nonzero;stroke:none"
             id="path38"
             inkscape:connector-curvature="0" />
        </g>
        <g
           id="g40"
           transform="translate(792.024,732.0308)">
          <path
             d="m 0,0 c -6.212,-0.72 -12.42,-1.481 -18.638,-2.153 -16.688,-1.804 -33.381,-3.571 -50.072,-5.349 -6.948,-0.741 -13.9,-1.442 -20.842,-2.233 -1.402,-0.16 -1.909,0.738 -2.569,1.597 -9.406,12.235 -18.822,24.463 -28.229,36.698 -27.499,35.772 -54.991,71.548 -82.493,107.317 -7.469,9.716 -14.963,19.413 -22.428,29.131 -0.315,0.409 -0.458,0.95 -0.682,1.43 1.164,0.634 1.884,-0.268 2.646,-0.828 15.452,-11.342 30.866,-22.735 46.292,-34.111 11.773,-8.682 23.569,-17.332 35.33,-26.028 14.171,-10.476 28.371,-20.915 42.531,-31.407 C -71.048,53.24 -42.83,32.567 -14.742,11.718 -10.366,8.471 -5.934,5.299 -1.609,1.981 -0.93,1.46 0.085,1.162 0,0"
             style="fill:#4151b5;fill-opacity:1;fill-rule:nonzero;stroke:none"
             id="path42"
             inkscape:connector-curvature="0" />
        </g>
        <g
           id="g44"
           transform="translate(1079.4302,707.4117)">
          <path
             d="m 0,0 c -2.927,2.704 -5.896,5.364 -8.774,8.12 -15.402,14.748 -30.765,29.537 -46.172,44.279 -16.257,15.557 -32.542,31.084 -48.826,46.611 -7.144,6.811 -14.318,13.591 -21.477,20.385 3.227,4.042 6.808,7.776 10.204,11.671 3.398,3.896 6.829,7.769 10.304,11.6 0.743,0.819 1.535,1.515 2.603,1.9 10.592,3.818 21.113,7.831 31.77,11.464 2.857,0.974 3.402,0.711 4.603,-2.031 8.449,-19.294 16.756,-38.65 25.169,-57.958 C -28.92,69.241 -17.377,42.384 -5.651,15.606 -3.83,11.448 -2.083,7.258 -0.292,3.086 0.122,2.123 0.74,1.105 0,0"
             style="fill:#391996;fill-opacity:1;fill-rule:nonzero;stroke:none"
             id="path46"
             inkscape:connector-curvature="0" />
        </g>
        <g
           id="g48"
           transform="translate(439.0611,826.3389)">
          <path
             d="m 0,0 c -8.434,4.617 -16.885,9.2 -25.296,13.856 -17.719,9.811 -35.417,19.659 -53.123,29.492 -1.629,0.904 -3.292,1.286 -5.219,1.028 -22.863,-3.059 -45.734,-6.065 -68.606,-9.056 -4.494,-0.588 -9.005,-1.052 -13.507,-1.573 -0.126,1.483 1.207,1.633 2.053,2.134 23.99,14.198 48.1,28.193 72.132,42.32 9.316,5.476 18.648,10.924 27.987,16.36 3.55,2.065 4.249,1.848 6.476,-1.707 C -38.298,62.849 -19.745,32.687 -0.938,2.682 -0.434,1.877 0.432,1.152 0,0"
             style="fill:#b3f5fe;fill-opacity:1;fill-rule:nonzero;stroke:none"
             id="path50"
             inkscape:connector-curvature="0" />
        </g>
        <g
           id="g52"
           transform="translate(653.4283,610.9791)">
          <path
             d="m 0,0 c -6.569,-0.732 -13.134,-1.498 -19.707,-2.189 -15.141,-1.594 -30.285,-3.148 -45.428,-4.726 -3.513,-0.366 -7.03,-0.718 -10.534,-1.167 -1.604,-0.205 -2.394,0.263 -2.978,1.89 -6.073,16.889 -12.242,33.744 -18.384,50.609 -0.337,0.924 -0.677,1.847 -1.016,2.77 6.199,1.316 12.472,2.225 18.7,3.379 14.986,2.775 29.999,5.391 44.992,8.131 3.966,0.725 4.4,0.432 6.244,-3.025 7.639,-14.325 15.017,-28.786 22.457,-43.214 1.621,-3.143 3.45,-6.178 4.92,-9.4 C -0.296,2.096 0.456,1.186 0,0"
             style="fill:#4151b5;fill-opacity:1;fill-rule:nonzero;stroke:none"
             id="path54"
             inkscape:connector-curvature="0" />
        </g>
        <g
           id="g56"
           transform="translate(853.1168,885.67)">
          <path
             d="m 0,0 c -5.727,-8.811 -11.417,-17.646 -17.187,-26.428 -20.834,-31.705 -41.696,-63.391 -62.54,-95.089 -2.306,-3.507 -2.293,-3.536 -5.673,-1.041 -13.95,10.295 -27.893,20.599 -41.839,30.898 -0.791,0.583 -1.593,1.153 -2.389,1.728 5.613,4.14 11.392,8.046 17.107,12.039 19.564,13.664 39.09,27.383 58.639,41.068 17.17,12.021 34.345,24.036 51.529,36.036 C -1.682,-0.319 -1.079,0.633 0,0"
             style="fill:#4151b5;fill-opacity:1;fill-rule:nonzero;stroke:none"
             id="path58"
             inkscape:connector-curvature="0" />
        </g>
        <g
           id="g60"
           transform="translate(867.7173,723.8306)">
          <path
             d="m 0,0 c -3.023,-9.692 -6.017,-19.395 -9.079,-29.075 -2.491,-7.873 -5.095,-15.711 -7.587,-23.584 -0.804,-2.539 -2.1,-4.036 -5.017,-4.459 -7.536,-1.093 -7.569,-1.269 -10.957,5.601 -7.987,16.199 -15.918,32.425 -23.864,48.643 -0.236,0.482 -0.387,1.005 -0.577,1.509 2.849,1.177 5.903,1.057 8.846,1.034 11.082,-0.086 22.135,0.89 33.221,0.675 3.885,-0.076 7.772,0.701 11.685,0.479 C -2.171,0.757 -0.937,0.971 0,0"
             style="fill:#36c0fe;fill-opacity:1;fill-rule:nonzero;stroke:none"
             id="path62"
             inkscape:connector-curvature="0" />
        </g>
        <g
           id="g64"
           transform="translate(494.5117,941.3721)">
          <path
             d="m 0,0 c -10.05,0.121 -19.361,3.793 -28.903,6.219 -35.9,9.123 -71.735,18.503 -107.575,27.861 -1.749,0.456 -2.73,-0.272 -3.87,-1.203 -18.295,-14.924 -36.59,-29.848 -54.9,-44.755 -29.786,-24.251 -59.585,-48.489 -89.375,-72.737 -16.972,-13.814 -33.945,-27.628 -50.883,-41.484 -1.184,-0.967 -2.358,-1.616 -3.881,-1.577 -0.863,0.177 -1.729,0.355 -3.106,0.637 5.682,4.643 10.983,8.985 16.296,13.314 26.973,21.974 53.947,43.948 80.927,65.916 35.219,28.677 70.449,57.342 105.646,86.047 1.256,1.024 2.353,1.314 3.951,0.899 C -87.586,26.644 -39.485,14.2 8.612,1.743 9.278,1.57 10.068,1.616 10.568,0.667 6.972,0.44 3.486,0.22 0,0"
             style="fill:#fefefe;fill-opacity:1;fill-rule:nonzero;stroke:none"
             id="path66"
             inkscape:connector-curvature="0" />
        </g>
        <g
           id="g68"
           transform="translate(692.7222,717.3663)">
          <path
             d="m 0,0 c -15.642,20.389 -31.272,40.787 -46.928,61.165 -24.065,31.326 -48.147,62.641 -72.225,93.958 -14.56,18.936 -29.178,37.827 -43.62,56.852 -1.657,2.184 -3.51,2.614 -5.799,2.485 -19.215,-1.085 -38.428,-2.226 -57.643,-3.318 -11.241,-0.64 -22.487,-1.212 -33.729,-1.832 -13.782,-0.76 -27.562,-1.538 -41.343,-2.305 -0.811,-0.045 -1.623,-0.064 -2.433,-0.096 -1.143,1.384 -2.035,2.91 -2.948,4.823 8.365,0.493 16.4,0.977 24.436,1.436 24.474,1.4 48.947,2.811 73.424,4.175 14.139,0.787 28.283,1.476 42.422,2.256 1.528,0.084 2.456,-0.445 3.393,-1.667 21.212,-27.673 42.469,-55.312 63.724,-82.951 23.912,-31.092 47.831,-62.177 71.746,-93.267 C -17.891,29.191 -8.268,16.66 1.367,4.139 3.487,1.383 3.502,1.394 0,0"
             style="fill:#fefefe;fill-opacity:1;fill-rule:nonzero;stroke:none"
             id="path70"
             inkscape:connector-curvature="0" />
        </g>
        <g
           id="g72"
           transform="translate(792.024,732.0308)">
          <path
             d="m 0,0 c -21.041,15.544 -42.078,31.094 -63.124,46.632 -43.561,32.158 -87.125,64.31 -130.689,96.464 -10.161,7.499 -20.325,14.993 -30.489,22.486 -0.502,0.37 -0.928,0.898 -1.649,0.855 -3.418,3.48 -6.07,7.58 -9.18,11.306 -0.033,0.903 0.334,0.986 0.986,0.479 12.425,-9.125 24.866,-18.23 37.273,-27.379 45.813,-33.781 91.617,-67.576 137.423,-101.368 C -37.824,33.522 -16.203,17.564 5.429,1.62 5.716,1.408 6.114,1.348 6.304,0.999 4.084,0.092 2.055,-0.054 0,0"
             style="fill:#fefefe;fill-opacity:1;fill-rule:nonzero;stroke:none"
             id="path74"
             inkscape:connector-curvature="0" />
        </g>
        <g
           id="g76"
           transform="translate(541.1563,655.001)">
          <path
             d="m 0,0 c -3.604,-10.35 -7.221,-20.694 -10.792,-31.056 -0.392,-1.139 -1.013,-1.517 -2.191,-1.508 -9.431,0.071 -18.861,0.099 -28.292,0.108 -1.135,0.002 -1.646,0.426 -1.699,1.573 -0.408,8.868 -0.842,17.735 -1.269,26.602 0.945,0.905 2.148,0.801 3.318,0.876 8.652,0.562 17.3,1.18 25.934,1.978 3.148,0.29 6.31,0.432 9.462,0.638 C -3.643,-0.666 -1.886,0.083 0,0"
             style="fill:#b3f5fe;fill-opacity:1;fill-rule:nonzero;stroke:none"
             id="path78"
             inkscape:connector-curvature="0" />
        </g>
        <g
           id="g80"
           transform="translate(831.3257,662.0723)">
          <path
             d="m 0,0 c -1.793,0.296 -2.044,1.939 -2.654,3.18 -8.772,17.831 -17.537,35.666 -26.206,53.548 -1.059,2.183 -2.003,2.916 -4.7,2.508 -7.405,-1.119 -14.904,-1.602 -22.359,-2.398 -7.721,-0.824 -15.431,-1.738 -23.148,-2.578 -5.659,-0.615 -11.326,-1.157 -16.985,-1.762 -7.989,-0.855 -15.975,-1.748 -23.965,-2.603 -1.619,-0.174 -3.254,-0.207 -4.873,-0.381 -6.081,-0.651 -10.472,-5.059 -15.889,-7.201 -1.338,-0.53 -2.535,-1.406 -3.825,-2.065 -17.617,-9.007 -35.236,-18.008 -52.863,-26.992 -1.002,-0.51 -1.966,-1.447 -3.252,-0.665 -1.777,2.924 -1.761,2.894 1.258,4.443 22.455,11.517 44.984,22.895 67.273,34.725 3.698,1.963 7.278,2.885 11.22,3.302 29.425,3.111 58.851,6.207 88.27,9.371 2.166,0.233 3.331,-0.215 4.37,-2.366 C -18.817,42.374 -9.142,22.761 0.442,3.104 0.932,2.101 2.534,0.681 0,0"
             style="fill:#fefefe;fill-opacity:1;fill-rule:nonzero;stroke:none"
             id="path82"
             inkscape:connector-curvature="0" />
        </g>
        <g
           id="g84"
           transform="translate(903.7613,681.7759)">
          <path
             d="m 0,0 c -14.319,-3.508 -28.689,-6.792 -43.129,-9.767 -0.554,-0.346 -1.117,-0.303 -1.685,-0.043 -0.691,2.548 0.878,4.65 1.487,6.914 0.603,2.245 1.347,4.477 2.134,6.679 1.443,4.56 3.047,9.07 4.372,13.668 2.357,7.202 4.647,14.426 6.925,21.652 0.871,1.996 1.893,1.598 2.918,0.151 1.576,-2.225 3.048,-4.52 4.561,-6.787 C -16.117,23.022 -9.672,13.675 -3.41,4.205 -2.405,2.685 -1.322,1.252 0,0"
             style="fill:#b3f5fe;fill-opacity:1;fill-rule:nonzero;stroke:none"
             id="path86"
             inkscape:connector-curvature="0" />
        </g>
        <g
           id="g88"
           transform="translate(1000.3316,768.4893)">
          <path
             d="m 0,0 c -5.494,2.802 -10.539,6.348 -15.794,9.546 -6.9,4.2 -13.789,8.424 -20.563,12.821 -3.551,2.304 -7.092,0.848 -10.568,0.375 -11.578,-1.575 -23.121,-3.404 -34.677,-5.135 -0.458,0.831 0.337,1.112 0.718,1.515 8.541,9.02 16.521,18.536 24.719,27.858 0.54,0.614 1.086,1.222 1.686,1.776 1.987,1.834 2.9,1.917 4.822,-0.086 4.524,-4.718 9.447,-9.013 14.155,-13.534 C -24.451,24.522 -13.429,13.879 -2.24,3.41 -1.254,2.487 0.255,1.788 0,0"
             style="fill:#4151b5;fill-opacity:1;fill-rule:nonzero;stroke:none"
             id="path90"
             inkscape:connector-curvature="0" />
        </g>
        <g
           id="g92"
           transform="translate(968.0728,855.5831)">
          <path
             d="m 0,0 c -15.356,8.258 -30.718,16.508 -46.069,24.775 -11.435,6.158 -22.865,12.327 -34.277,18.527 -1.048,0.569 -2.046,0.617 -3.143,0.375 -4.077,-0.896 -8.153,-1.803 -12.24,-2.652 -1.422,-0.296 -2.317,-1.016 -3.141,-2.271 -29.917,-45.532 -59.885,-91.03 -89.851,-136.531 -0.447,-0.68 -0.96,-1.317 -1.44,-1.974 -1.528,0.567 -2.104,1.081 -0.92,2.874 22.366,33.856 44.638,67.774 66.935,101.675 8.68,13.196 17.394,26.37 26.038,39.589 0.68,1.041 1.505,1.453 2.613,1.687 4.176,0.884 8.352,1.767 12.51,2.735 1.238,0.288 2.26,0.113 3.368,-0.486 C -52.547,33.676 -25.469,19.043 1.637,4.461 3.018,3.718 3.175,3.181 2.079,2.144 1.356,1.461 0.69,0.717 0,0"
             style="fill:#fefefe;fill-opacity:1;fill-rule:nonzero;stroke:none"
             id="path94"
             inkscape:connector-curvature="0" />
        </g>
        <g
           id="g96"
           transform="translate(439.0611,826.3389)">
          <path
             d="m 0,0 c -14.74,23.682 -29.473,47.368 -44.223,71.044 -4.694,7.534 -9.485,15.009 -14.109,22.586 -1.126,1.844 -2.138,2.023 -3.913,0.972 -10.914,-6.461 -21.864,-12.861 -32.813,-19.262 -14.782,-8.641 -29.59,-17.236 -44.356,-25.907 -8.811,-5.174 -17.56,-10.454 -26.337,-15.686 -2.177,-0.347 -4.353,-0.694 -6.53,-1.041 -1.01,-0.138 -2.156,-0.896 -2.8,0.62 37.855,22.182 75.717,44.352 113.543,66.582 1.726,1.015 2.471,0.884 3.558,-0.867 C -37.821,66.555 -17.587,34.115 2.626,1.663 3.438,0.361 4.203,-0.969 5.26,-2.739 2.998,-2.077 1.465,-1.108 0,0"
             style="fill:#fefefe;fill-opacity:1;fill-rule:nonzero;stroke:none"
             id="path98"
             inkscape:connector-curvature="0" />
        </g>
        <g
           id="g100"
           transform="translate(1079.4302,707.4117)">
          <path
             d="m 0,0 c -1.354,4.912 -3.772,9.392 -5.778,14.032 -19.719,45.595 -39.502,91.162 -59.261,136.739 -2.457,5.669 -2.428,5.644 -8.349,3.486 -9.64,-3.514 -19.293,-6.996 -28.959,-10.439 -0.96,-0.341 -1.433,-1.066 -2.019,-1.731 -6.187,-7.02 -12.354,-14.058 -18.553,-21.066 -0.628,-0.71 -1.108,-1.731 -2.332,-1.625 -1.48,1.089 -1.445,2.011 -0.153,3.452 7.332,8.177 14.589,16.423 21.755,24.747 1.402,1.629 3.311,1.781 5.006,2.419 9.851,3.703 19.784,7.189 29.654,10.845 1.542,0.572 2.194,0.331 2.85,-1.188 16.053,-37.145 32.151,-74.27 48.243,-111.399 C -10.466,31.125 -3.031,13.979 4.401,-3.167 4.552,-3.733 4.314,-3.897 3.786,-3.761 2.524,-2.508 1.262,-1.254 0,0"
             style="fill:#fdfdfd;fill-opacity:1;fill-rule:nonzero;stroke:none"
             id="path102"
             inkscape:connector-curvature="0" />
        </g>
        <g
           id="g104"
           transform="translate(853.1168,885.67)">
          <path
             d="m 0,0 c -19.712,-13.778 -39.432,-27.546 -59.136,-41.336 -22.608,-15.824 -45.204,-31.665 -67.8,-47.506 -0.824,-0.577 -1.615,-1.177 -2.695,-1.088 -0.068,0.055 -0.138,0.114 -0.21,0.169 -2.561,1.937 -2.558,1.933 0.187,3.855 5.132,3.594 10.257,7.198 15.389,10.791 C -75.213,-47.78 -36.16,-20.448 2.895,6.882 3.602,7.376 4.342,7.823 5.729,8.721 3.77,5.209 1.973,2.549 0,0"
             style="fill:#fefefe;fill-opacity:1;fill-rule:nonzero;stroke:none"
             id="path106"
             inkscape:connector-curvature="0" />
        </g>
        <g
           id="g108"
           transform="translate(563.5357,614.6163)">
          <path
             d="m 0,0 c -10.055,-1.552 -20.111,-3.104 -30.167,-4.655 -0.647,0.976 0.148,1.895 0.11,2.848 3.927,10.24 7.325,20.667 11.022,30.989 0.368,1.027 0.839,2.003 1.252,3.006 0.739,1.932 0.812,4.145 2.419,5.71 1.704,-0.288 1.894,-1.817 2.329,-3.025 C -9.378,24.723 -5.637,14.604 -1.973,4.458 -1.416,2.915 -0.691,1.47 0,0"
             style="fill:#36c0fe;fill-opacity:1;fill-rule:nonzero;stroke:none"
             id="path110"
             inkscape:connector-curvature="0" />
        </g>
        <g
           id="g112"
           transform="translate(154.7784,802.7847)">
          <path
             d="m 0,0 c -4.585,-2.056 -9.574,-2.547 -14.404,-3.596 -20.905,-4.541 -41.839,-8.946 -62.767,-13.378 -2.558,-0.542 -5.143,-0.953 -7.715,-1.424 -0.037,1.241 1.063,1.363 1.812,1.714 11.679,5.477 23.407,10.851 35.094,16.315 3.62,1.693 7.2,3.474 10.871,5.064 1.555,0.674 3.038,0.973 4.742,0.708 C -22.134,3.809 -11.928,2.031 -1.642,0.797 -1.008,0.721 -0.368,0.635 0,0"
             style="fill:#391996;fill-opacity:1;fill-rule:nonzero;stroke:none"
             id="path114"
             inkscape:connector-curvature="0" />
        </g>
        <g
           id="g116"
           transform="translate(653.4283,610.9791)">
          <path
             d="m 0,0 c -9.729,18.787 -19.484,37.561 -29.141,56.385 -0.934,1.822 -2.006,2.191 -3.864,1.851 -20.453,-3.742 -40.916,-7.437 -61.38,-11.124 -1.208,-0.217 -2.463,-0.817 -3.663,0.077 -1.281,4.013 -1.29,4.063 2.864,4.817 20.974,3.806 41.957,7.556 62.921,11.415 1.889,0.348 2.71,-0.161 3.558,-1.811 C -18.593,41.927 -8.396,22.287 1.77,2.632 3.094,0.073 3.074,0.063 0,0"
             style="fill:#fdfdfe;fill-opacity:1;fill-rule:nonzero;stroke:none"
             id="path118"
             inkscape:connector-curvature="0" />
        </g>
        <g
           id="g120"
           transform="translate(154.7784,802.7847)">
          <path
             d="m 0,0 c -5.471,0.087 -10.781,1.408 -16.166,2.148 -5.576,0.767 -11.129,1.705 -16.693,2.569 -0.99,0.154 -1.94,0.258 -2.923,-0.202 -16.362,-7.652 -32.735,-15.28 -49.105,-22.913 -5.081,-1.114 -10.164,-2.228 -15.246,-3.342 -0.639,-0.253 -1.227,-0.41 -1.172,0.629 16.38,7.632 32.759,15.262 49.138,22.894 5.35,2.492 10.709,4.966 16.04,7.498 1.104,0.524 2.179,0.844 3.401,0.655 C -19.902,7.943 -7.078,5.958 6.065,3.922 4.152,2.063 1.952,1.217 0,0"
             style="fill:#fdfdfd;fill-opacity:1;fill-rule:nonzero;stroke:none"
             id="path122"
             inkscape:connector-curvature="0" />
        </g>
        <g
           id="g124"
           transform="translate(1000.3316,768.4893)">
          <path
             d="m 0,0 c -5.389,5.242 -10.745,10.518 -16.173,15.719 -11.34,10.865 -22.748,21.659 -34.046,32.569 -1.609,1.554 -2.475,1.647 -3.999,-0.113 -8.136,-9.403 -16.389,-18.704 -24.631,-28.017 -0.825,-0.933 -1.835,-1.705 -2.755,-2.551 -0.425,-0.043 -0.852,-0.086 -1.28,-0.128 -0.715,-0.18 -1.556,-0.706 -1.723,0.625 10.421,11.859 20.851,23.712 31.253,35.588 0.916,1.046 1.458,1.81 2.917,0.409 C -29.216,33.741 -7.929,13.45 13.338,-6.862 13.792,-7.295 14.2,-7.775 14.629,-8.233 14.605,-9.118 14.124,-8.994 13.571,-8.713 9.048,-5.809 4.523,-2.904 0,0"
             style="fill:#fdfdfd;fill-opacity:1;fill-rule:nonzero;stroke:none"
             id="path126"
             inkscape:connector-curvature="0" />
        </g>
        <g
           id="g128"
           transform="translate(932.1324,887.4571)">
          <path
             d="m 0,0 c -6.563,3.423 -13.128,6.845 -19.692,10.268 0.142,0.337 0.286,0.674 0.429,1.011 29.782,-8.824 59.564,-17.65 90.063,-26.687 -2.875,-1.089 -5.043,-1.91 -7.212,-2.732 -1.904,-0.453 -3.732,-0.193 -5.598,0.373 C 40.886,-12.576 23.763,-7.45 6.587,-2.5 4.34,-1.853 2.129,-1.011 0,0"
             style="fill:#fdfdfd;fill-opacity:1;fill-rule:nonzero;stroke:none"
             id="path130"
             inkscape:connector-curvature="0" />
        </g>
        <g
           id="g132"
           transform="translate(973.5699,695.4464)">
          <path
             d="m 0,0 c -6.1,-1.411 -12.329,-2.025 -18.501,-2.983 -13.728,-2.131 -27.469,-4.172 -41.207,-6.232 -3.108,-0.466 -3.113,-0.433 -2.64,2.698 1.128,1.311 -0.057,3.018 0.753,4.383 l -0.008,-0.031 c 0.673,1.997 -0.165,4.511 2.053,5.982 2.141,0.569 4.326,0.412 6.482,0.273 12.805,-0.83 25.612,-1.597 38.43,-2.222 C -10.681,1.674 -6.677,1.67 -2.746,0.952 -1.78,0.775 -0.733,0.842 0,0"
             style="fill:#f05224;fill-opacity:1;fill-rule:nonzero;stroke:none"
             id="path134"
             inkscape:connector-curvature="0" />
        </g>
        <g
           id="g136"
           transform="translate(932.1324,887.4571)">
          <path
             d="m 0,0 c 6.045,-1.156 11.829,-3.252 17.717,-4.963 14.254,-4.141 28.454,-8.47 42.686,-12.688 1.022,-0.303 2.126,-0.331 3.189,-0.488 -5.605,-2.008 -11.217,-3.987 -16.799,-6.046 -1.139,-0.419 -2.026,-0.279 -3.069,0.289 C 30.591,-16.748 17.42,-9.669 4.306,-2.486 2.86,-1.694 0.831,-1.855 0,0"
             style="fill:#4151b5;fill-opacity:1;fill-rule:nonzero;stroke:none"
             id="path138"
             inkscape:connector-curvature="0" />
        </g>
        <g
           id="g140"
           transform="translate(973.5699,695.4464)">
          <path
             d="m 0,0 c -12.4,0.741 -24.798,1.529 -37.201,2.205 -7.603,0.415 -15.189,1.179 -22.814,1.125 -1.558,0.53 -0.497,1.659 -0.577,2.527 0.011,1.91 0.521,2.927 2.882,2.781 C -38.855,7.469 -19.995,6.36 -1.126,5.441 2.197,5.28 4.098,3.987 5.17,0.833 3.532,0.036 1.744,0.128 0,0"
             style="fill:#fefdfd;fill-opacity:1;fill-rule:nonzero;stroke:none"
             id="path142"
             inkscape:connector-curvature="0" />
        </g>
        <g
           id="g144"
           transform="translate(490.2896,630.6392)">
          <path
             d="m 0,0 c -6.814,0.02 -13.628,0.051 -20.442,0.046 -1.146,-0.001 -2.114,0.215 -2.939,1.1 -2.536,2.719 -5.12,5.393 -7.686,8.085 0.494,1.089 1.523,1.193 2.511,1.332 8.366,1.178 16.729,2.377 25.1,3.512 0.817,0.11 1.631,0.188 2.389,-0.252 C -0.069,11.747 -0.086,9.471 0.025,7.266 0.146,4.854 0.252,2.42 0,0"
             style="fill:#4151b5;fill-opacity:1;fill-rule:nonzero;stroke:none"
             id="path146"
             inkscape:connector-curvature="0" />
        </g>
        <g
           id="g148"
           transform="translate(867.7173,723.8306)">
          <path
             d="m 0,0 c -18.126,-0.484 -36.252,-0.971 -54.378,-1.447 -0.899,-0.023 -1.803,0.054 -2.703,0.084 -2.888,4.895 -2.889,4.932 2.604,5.086 17.735,0.494 35.47,0.964 53.205,1.43 C 1.803,5.234 1.817,5.202 0.9,2.253 0.66,1.483 0.304,0.75 0,0"
             style="fill:#fdfdfd;fill-opacity:1;fill-rule:nonzero;stroke:none"
             id="path150"
             inkscape:connector-curvature="0" />
        </g>
        <g
           id="g152"
           transform="translate(541.1563,655.001)">
          <path
             d="m 0,0 c -0.954,-1 -2.015,-1.458 -3.5,-1.558 -8.807,-0.596 -17.599,-1.421 -26.403,-2.053 -4.772,-0.343 -9.559,-0.453 -14.34,-0.669 -0.712,4.716 -0.715,4.754 4.048,5.127 13.081,1.026 26.164,2.019 39.247,3.014 C -0.243,3.915 0.47,3.868 1.264,3.868 1.09,2.429 0.759,1.147 0,0"
             style="fill:#fdfdfd;fill-opacity:1;fill-rule:nonzero;stroke:none"
             id="path154"
             inkscape:connector-curvature="0" />
        </g>
        <g
           id="g156"
           transform="translate(907.105,703.7217)">
          <path
             d="m 0,0 c -0.143,-3.199 -0.501,-6.364 -1.48,-10.198 -5.942,9.012 -11.527,17.484 -17.113,25.955 2.532,1.528 5.15,0.22 7.662,0.039 6.708,-0.482 6.701,-0.646 9.046,-7.01 C -1.197,6.92 -0.441,5.074 -0.062,3.11 0.017,2.075 0.521,1.047 0,0"
             style="fill:#391996;fill-opacity:1;fill-rule:nonzero;stroke:none"
             id="path158"
             inkscape:connector-curvature="0" />
        </g>
        <g
           id="g160"
           transform="translate(903.7613,681.7759)">
          <path
             d="m 0,0 c -1.7,-0.101 -2.251,1.281 -2.983,2.37 -8.107,12.05 -16.189,24.117 -24.316,36.154 -0.438,0.649 -0.716,2.512 -2.129,0.767 -0.468,0.761 -0.325,1.536 -0.048,2.313 0.123,1.269 0.482,2.46 1.356,3.968 2.377,-3.504 4.627,-6.798 6.854,-10.108 C -13.831,24.421 -6.418,13.364 1.042,2.338 2.062,0.831 2.373,-0.12 0,0"
             style="fill:#fcfdfd;fill-opacity:1;fill-rule:nonzero;stroke:none"
             id="path162"
             inkscape:connector-curvature="0" />
        </g>
        <g
           id="g164"
           transform="translate(489.2022,644.0704)">
          <path
             d="m 0,0 c -10.019,-1.211 -20.027,-2.502 -29.979,-4.2 -1.547,1.248 -2.893,2.685 -4.408,4.625 3.898,0.542 7.498,1.04 11.098,1.542 7.34,1.024 14.679,2.054 22.02,3.069 0.612,0.084 1.25,0.289 1.848,-0.091 C 0.766,3.252 1.7,1.472 0,0"
             style="fill:#fdfdfd;fill-opacity:1;fill-rule:nonzero;stroke:none"
             id="path166"
             inkscape:connector-curvature="0" />
        </g>
        <g
           id="g168"
           transform="translate(434.2207,636.5367)">
          <path
             d="m 0,0 c -4.521,0.766 -9.042,1.532 -13.563,2.298 -0.642,0.915 -0.099,1.176 0.711,1.275 0.846,0.103 1.726,-0.177 2.543,0.23 7.01,0.933 14.024,1.825 21.023,2.831 1.592,0.229 2.695,-0.067 3.817,-1.303 2.849,-3.137 5.864,-6.123 9.171,-9.539 -2.555,-0.172 -4.462,0.493 -6.392,0.978 -1.349,0.521 -2.605,1.188 -3.468,2.4 C 12.766,0.68 11.331,0.967 9.569,0.702 6.403,0.225 3.24,-0.462 0,0"
             style="fill:#fcfcfc;fill-opacity:1;fill-rule:nonzero;stroke:none"
             id="path170"
             inkscape:connector-curvature="0" />
        </g>
        <g
           id="g172"
           transform="translate(906.6021,706.2369)">
          <path
             d="m 0,0 c -1.277,3.478 -2.567,6.952 -3.824,10.437 -0.326,0.907 -0.704,1.55 -1.843,1.642 -4.146,0.333 -8.282,0.767 -12.423,1.163 -1.251,1.725 -2.503,3.449 -4.141,5.707 6.268,-0.643 11.827,-1.224 17.388,-1.772 1.056,-0.104 1.253,-0.895 1.539,-1.65 C -1.891,11.8 -0.519,8.056 0.946,4.35 1.511,2.923 1.616,1.573 0.97,0.178 0.704,-0.193 0.359,-0.135 0,0"
             style="fill:#fbfbfb;fill-opacity:1;fill-rule:nonzero;stroke:none"
             id="path174"
             inkscape:connector-curvature="0" />
        </g>
        <g
           id="g176"
           transform="translate(563.5357,614.6163)">
          <path
             d="m 0,0 c -1.445,0.048 -1.587,1.227 -1.95,2.229 -3.917,10.799 -7.84,21.595 -11.758,32.393 -0.396,1.093 -0.731,2.215 -1.577,3.077 -1.398,0.179 -0.819,1.098 -0.691,1.847 -0.162,1.393 0.763,2.319 1.501,3.746 2.907,-7.984 5.694,-15.636 8.477,-23.29 C -3.858,14.122 -1.701,8.248 0.385,2.348 0.648,1.601 1.797,0.496 0,0"
             style="fill:#f8fafa;fill-opacity:1;fill-rule:nonzero;stroke:none"
             id="path178"
             inkscape:connector-curvature="0" />
        </g>
        <g
           id="g180"
           transform="translate(545.941,646.9532)">
          <path
             d="m 0,0 c -0.628,-4.416 -2.633,-8.394 -4.057,-12.55 -2.504,-7.314 -5.225,-14.553 -7.856,-21.824 -1.373,0.124 -0.765,0.947 -0.573,1.623 1.818,5.31 3.639,10.619 5.453,15.93 1.657,4.85 3.293,9.706 4.972,14.548 0.307,0.883 0.494,1.911 1.598,2.256 C -0.315,0.18 -0.161,0.194 0,0"
             style="fill:#d4e6ec;fill-opacity:1;fill-rule:nonzero;stroke:none"
             id="path182"
             inkscape:connector-curvature="0" />
        </g>
        <g
           id="g184"
           transform="translate(434.2207,636.5367)">
          <path
             d="m 0,0 c 1.776,0.262 3.628,0.29 5.315,0.83 5.067,1.623 9.06,0.432 11.996,-4.061 C 11.482,-2.463 5.739,-1.243 0,0"
             style="fill:#3b1d93;fill-opacity:1;fill-rule:nonzero;stroke:none"
             id="path186"
             inkscape:connector-curvature="0" />
        </g>
        <g
           id="g188"
           transform="translate(874.2857,723.3795)">
          <path
             d="m 0,0 c 0.016,-0.771 0.032,-1.541 0.048,-2.313 -2.07,-7.352 -4.194,-14.687 -7.04,-21.788 -0.361,0.025 -0.446,0.368 -0.654,0.568 1.007,5.302 3.146,10.261 4.742,15.383 C -2.05,-5.408 -1.48,-2.531 0,0"
             style="fill:#d6e3e5;fill-opacity:1;fill-rule:nonzero;stroke:none"
             id="path190"
             inkscape:connector-curvature="0" />
        </g>
        <g
           id="g192"
           transform="translate(489.2022,644.0704)">
          <path
             d="M 0,0 C 1.331,1.516 0.105,3.33 0.579,4.945 1.771,1.754 1.108,-1.627 1.578,-4.9 1.897,-7.127 1.884,-9.407 1.949,-11.665 1.968,-12.342 2.553,-13.425 1.088,-13.432 0.249,-8.993 0.616,-4.457 0,0"
             style="fill:#abaec2;fill-opacity:1;fill-rule:nonzero;stroke:none"
             id="path194"
             inkscape:connector-curvature="0" />
        </g>
        <g
           id="g196"
           transform="translate(862.9048,685.6353)">
          <path
             d="m 0,0 c -0.239,-3.63 -2.245,-6.744 -2.994,-10.227 -0.242,-1.128 -0.575,-2.236 -0.867,-3.353 -0.694,-0.386 -1.197,-0.421 -1.119,0.609 1.428,5.021 2.889,10.032 4.837,14.884 C 0.487,1.318 0.294,0.663 0,0"
             style="fill:#d4e0e1;fill-opacity:1;fill-rule:nonzero;stroke:none"
             id="path198"
             inkscape:connector-curvature="0" />
        </g>
        <g
           id="g200"
           transform="translate(862.9048,685.6353)">
          <path
             d="M 0,0 C -0.047,0.638 -0.095,1.275 -0.143,1.913 0.842,6.109 2.22,10.182 3.734,14.211 3.952,14.022 4.17,13.833 4.389,13.644 3.445,8.929 1.901,4.407 0,0"
             style="fill:#d9e4e5;fill-opacity:1;fill-rule:nonzero;stroke:none"
             id="path202"
             inkscape:connector-curvature="0" />
        </g>
        <g
           id="g204"
           transform="translate(545.941,646.9532)">
          <path
             d="M 0,0 C -0.154,-0.011 -0.309,-0.016 -0.463,-0.016 -0.665,2.65 0.551,4.909 1.619,7.209 1.818,6.582 1.602,5.8 2.31,5.362 1.466,3.606 1.503,1.472 0,0"
             style="fill:#cce1ea;fill-opacity:1;fill-rule:nonzero;stroke:none"
             id="path206"
             inkscape:connector-curvature="0" />
        </g>
        <g
           id="g208"
           transform="translate(533.4547,614.2017)">
          <path
             d="M 0,0 C 0.028,-0.598 -0.086,-1.247 0.573,-1.622 0.354,-2.495 0.135,-3.368 -0.085,-4.241 -0.814,-4.468 -1.643,-4.686 -1.306,-3.455 -0.983,-2.272 -0.444,-1.149 0,0"
             style="fill:#cfe4ed;fill-opacity:1;fill-rule:nonzero;stroke:none"
             id="path210"
             inkscape:connector-curvature="0" />
        </g>
        <g
           id="g212"
           transform="translate(912.9781,701.3033)">
          <path
             d="M 0,0 C 0.334,-0.81 -0.276,-1.836 0.578,-2.527 0.048,-4.359 -0.481,-6.19 -1.011,-8.021 -1.094,-5.295 -0.729,-2.625 0,0"
             style="fill:#cd7f69;fill-opacity:1;fill-rule:nonzero;stroke:none"
             id="path214"
             inkscape:connector-curvature="0" />
        </g>
        <g
           id="g216"
           transform="translate(423.9121,640.3394)">
          <path
             d="M 0,0 C -0.878,-0.949 -2.766,0.286 -3.255,-1.504 -4.149,-1.681 -5.029,-1.802 -5.81,-0.757 -3.843,-0.089 -1.99,0.39 0,0"
             style="fill:#454545;fill-opacity:1;fill-rule:nonzero;stroke:none"
             id="path218"
             inkscape:connector-curvature="0" />
        </g>
        <g
           id="g220"
           transform="translate(909.8892,898.938)">
          <path
             d="M 0,0 C -0.771,0.187 -1.49,0.455 -2.048,1.405 -0.603,1.764 0.498,1.246 1.572,0.58 1.216,-0.068 0.494,0.275 0,0"
             style="fill:#2f2f2f;fill-opacity:1;fill-rule:nonzero;stroke:none"
             id="path222"
             inkscape:connector-curvature="0" />
        </g>
        <g
           id="g224"
           transform="translate(263.98,859.6651)">
          <path
             d="M 0,0 C 0.726,-1.145 1.941,-0.079 2.8,-0.62 1.491,-1.302 0.117,-1.304 -1.347,-1.168 -1.202,-0.24 -0.69,-0.008 0,0"
             style="fill:#929292;fill-opacity:1;fill-rule:nonzero;stroke:none"
             id="path226"
             inkscape:connector-curvature="0" />
        </g>
        <g
           id="g228"
           transform="translate(857.9244,672.6646)">
          <path
             d="M 0,0 C 0.235,-0.457 0.619,-0.641 1.12,-0.609 1.649,-0.625 2.18,-0.64 2.709,-0.655 2.047,-0.89 1.401,-1.219 0.72,-1.338 -0.701,-1.586 -0.583,-0.892 0,0"
             style="fill:#c7d1d2;fill-opacity:1;fill-rule:nonzero;stroke:none"
             id="path230"
             inkscape:connector-curvature="0" />
        </g>
        <g
           id="g232"
           transform="translate(911.9752,693.3126)">
          <path
             d="M 0,0 C -0.252,-1.461 0.73,-3.134 -0.753,-4.383 -0.332,-2.951 -0.917,-1.347 0,0"
             style="fill:#ca7d67;fill-opacity:1;fill-rule:nonzero;stroke:none"
             id="path234"
             inkscape:connector-curvature="0" />
        </g>
        <g
           id="g236"
           transform="translate(1013.9029,759.7764)">
          <path
             d="M 0,0 C 0.353,0.16 0.705,0.32 1.058,0.48 1.733,0.562 1.968,0.012 2.304,-0.392 2.413,-0.982 2.249,-1.298 1.583,-1.113 0.947,-0.896 0.311,-0.681 0,0"
             style="fill:#9e9e9e;fill-opacity:1;fill-rule:nonzero;stroke:none"
             id="path238"
             inkscape:connector-curvature="0" />
        </g>
        <g
           id="g240"
           transform="translate(909.8892,898.938)">
          <path
             d="M 0,0 C 0.331,0.717 1.01,0.49 1.572,0.58 1.928,0.34 2.438,-0.008 2.043,-0.394 1.283,-1.134 0.704,-0.071 0,0"
             style="fill:#8b8b8b;fill-opacity:1;fill-rule:nonzero;stroke:none"
             id="path242"
             inkscape:connector-curvature="0" />
        </g>
        <g
           id="g244"
           transform="translate(557.879,910.253)">
          <path
             d="M 0,0 C -0.329,-0.16 -0.658,-0.319 -0.986,-0.479 -1.333,-0.1 -1.679,0.278 -2.025,0.657 -2.04,1.57 -1.627,1.583 -1,1.144 -0.623,0.801 0.046,0.713 0,0"
             style="fill:#909090;fill-opacity:1;fill-rule:nonzero;stroke:none"
             id="path246"
             inkscape:connector-curvature="0" />
        </g>
        <g
           id="g248"
           transform="translate(53.4737,781.6739)">
          <path
             d="M 0,0 C 0.391,-0.209 0.781,-0.419 1.172,-0.629 0.758,-1.162 0.127,-1.108 -0.441,-1.223 -1.056,-1.385 -1.701,-1.601 -1.636,-0.552 -1.106,-0.323 -0.672,0.19 0,0"
             style="fill:#a5a5a5;fill-opacity:1;fill-rule:nonzero;stroke:none"
             id="path250"
             inkscape:connector-curvature="0" />
        </g>
        <g
           id="g252"
           transform="translate(51.8379,781.1216)">
          <path
             d="M 0,0 C 0.197,-0.583 0.765,-0.502 1.195,-0.67 0.413,-1.256 -0.434,-1.311 -1.345,-1.001 -1.246,-0.162 -0.663,-0.027 0,0"
             style="fill:#626262;fill-opacity:1;fill-rule:nonzero;stroke:none"
             id="path254"
             inkscape:connector-curvature="0" />
        </g>
        <g
           id="g256"
           transform="translate(1017.6353,758.0455)">
          <path
             d="M 0,0 C 0.704,-0.059 1.1,-0.504 1.45,-1.222 0.518,-1.744 0.029,-1.117 -0.478,-0.558 -0.561,-0.165 -0.26,-0.1 0,0"
             style="fill:#3e3e3e;fill-opacity:1;fill-rule:nonzero;stroke:none"
             id="path258"
             inkscape:connector-curvature="0" />
        </g>
        <g
           id="g260"
           transform="translate(915.7242,786.5938)">
          <path
             d="M 0,0 C 0.404,-0.676 1.179,-0.336 1.724,-0.625 1.003,-1.142 0.185,-1.52 -0.563,-0.881 -0.867,-0.622 -0.52,-0.099 0,0"
             style="fill:#8a8a8a;fill-opacity:1;fill-rule:nonzero;stroke:none"
             id="path262"
             inkscape:connector-curvature="0" />
        </g>
        <g
           id="g264"
           transform="translate(556.879,911.397)">
          <path
             d="M 0,0 C -0.404,-0.032 -0.847,0.019 -1.025,-0.487 -1.475,-0.1 -2.284,0.456 -1.69,0.911 -1.112,1.354 -0.468,0.529 0,0"
             style="fill:#565656;fill-opacity:1;fill-rule:nonzero;stroke:none"
             id="path266"
             inkscape:connector-curvature="0" />
        </g>
        <g
           id="g268"
           transform="translate(906.6021,706.2369)">
          <path
             d="M 0,0 C 0.323,0.06 0.646,0.119 0.97,0.178 1.19,-0.786 1.245,-1.72 0.503,-2.516 0.336,-1.677 0.168,-0.838 0,0"
             style="fill:#514b62;fill-opacity:1;fill-rule:nonzero;stroke:none"
             id="path270"
             inkscape:connector-curvature="0" />
        </g>
        <g
           id="g272"
           transform="translate(1017.6353,758.0455)">
          <path
             d="m 0,0 c -0.159,-0.186 -0.318,-0.372 -0.478,-0.558 -0.557,0.392 -1.114,0.784 -1.671,1.176 0.24,0.24 0.48,0.481 0.72,0.721 C -0.952,0.893 -0.477,0.446 0,0"
             style="fill:#848484;fill-opacity:1;fill-rule:nonzero;stroke:none"
             id="path274"
             inkscape:connector-curvature="0" />
        </g>
        <g
           id="g276"
           transform="translate(1083.2163,703.6505)">
          <path
             d="M 0,0 0.615,0.595 C 1.262,0.284 1.612,-0.491 1.187,-0.827 0.58,-1.308 0.16,-0.646 0,0"
             style="fill:#818181;fill-opacity:1;fill-rule:nonzero;stroke:none"
             id="path278"
             inkscape:connector-curvature="0" />
        </g>
      </g>
    </g>
  </g>
</svg>
