<svg xmlns="http://www.w3.org/2000/svg" version="1.1" xmlns:xlink="http://www.w3.org/1999/xlink" xmlns:svgjs="http://svgjs.com/svgjs" width="2048.000000pt" height="1000.000000pt"><svg version="1.0" xmlns="http://www.w3.org/2000/svg" width="2048.000000pt" height="1000.000000pt" viewBox="0 0 2048.000000 1000.000000" preserveAspectRatio="xMidYMid meet">

<g transform="translate(0.000000,1000.000000) scale(0.100000,-0.100000)" fill="#000000" stroke="none">
<path d="M6109 8399 c-217 -176 -484 -393 -593 -482 -110 -89 -225 -182 -255
-208 -50 -41 -580 -471 -1301 -1059 -146 -119 -326 -265 -400 -326 -74 -60
-295 -240 -490 -398 -195 -159 -371 -304 -390 -322 l-36 -34 -221 37 -222 37
-103 -49 c-57 -26 -197 -92 -313 -145 -1310 -608 -1359 -631 -1372 -648 -21
-26 -15 -60 13 -79 25 -16 32 -15 172 15 81 17 296 63 477 101 182 39 656 140
1055 225 l725 154 135 80 c278 163 612 359 835 490 765 447 726 426 785 433
114 14 838 109 905 119 39 5 111 15 160 20 50 6 106 13 125 16 77 10 107 14
140 19 50 7 228 30 430 56 l175 23 665 -369 c366 -203 755 -419 865 -480 l200
-111 128 -205 c70 -112 187 -301 261 -419 73 -118 321 -516 551 -885 229 -368
487 -782 572 -918 85 -136 156 -254 159 -261 4 -10 -20 -15 -103 -20 -59 -4
-126 -9 -148 -11 -22 -3 -166 -14 -320 -25 -154 -11 -295 -23 -313 -26 -43 -7
-72 -37 -72 -74 0 -23 -5 -31 -22 -35 -13 -2 -255 -36 -538 -75 -1154 -157
-1131 -154 -1151 -179 -23 -29 -23 -33 -1 -60 18 -23 10 -22 462 -106 135 -25
351 -67 480 -92 l235 -47 281 -3 281 -4 9 -62 c7 -51 13 -64 34 -74 18 -9 103
-13 318 -13 183 0 292 -4 292 -10 0 -5 -11 -39 -25 -76 -32 -84 -31 -107 1
-133 33 -26 67 -26 214 -2 274 46 521 82 529 77 4 -3 22 -45 40 -94 43 -122
49 -126 158 -119 72 5 321 30 618 62 28 3 158 17 290 30 132 14 328 34 434 45
207 22 231 30 231 77 0 33 20 38 210 52 91 7 181 14 200 17 19 2 148 13 285
24 138 11 270 22 295 24 25 3 221 19 435 36 342 28 395 35 431 54 136 71 984
518 1164 613 213 114 216 115 330 134 63 10 119 19 123 19 4 0 19 12 32 26 20
22 48 32 152 55 169 38 386 87 672 153 208 47 237 56 256 79 18 24 34 29 155
47 1209 180 1162 171 1184 232 8 22 1 39 -50 118 -32 51 -68 98 -79 105 -13 8
-82 15 -195 19 -96 4 -236 11 -310 16 -74 5 -234 14 -355 20 -121 7 -247 15
-279 18 l-59 7 -59 160 c-33 88 -67 168 -76 178 -12 14 -26 17 -52 14 -19 -2
-109 4 -200 14 -91 10 -181 19 -200 19 -29 0 -39 6 -54 30 -26 45 -61 65 -90
52 -13 -6 -111 -13 -217 -16 -107 -4 -264 -8 -349 -11 -143 -5 -153 -4 -135
11 11 9 308 190 660 404 l640 388 210 31 c116 16 335 49 487 71 l278 41 72
-44 c40 -25 249 -154 463 -287 215 -133 511 -317 659 -409 l270 -166 345 -329
c190 -181 391 -373 446 -427 114 -111 172 -159 191 -159 19 0 54 37 54 57 0
16 -68 175 -510 1193 -275 632 -520 1199 -750 1730 -106 245 -199 453 -208
463 -8 9 -27 17 -42 17 -15 0 -108 24 -206 54 -99 30 -296 89 -439 131 -143
42 -348 103 -455 135 -107 32 -312 93 -455 136 -143 42 -363 107 -488 144
l-228 68 -97 -23 c-53 -12 -162 -37 -242 -54 -109 -24 -151 -37 -170 -55 -14
-13 -205 -149 -425 -303 -220 -154 -605 -423 -855 -598 -250 -175 -525 -367
-610 -427 -359 -253 -795 -558 -800 -558 -3 0 -71 48 -152 108 -212 156 -994
733 -1168 861 -58 43 -314 232 -570 421 -256 189 -523 386 -595 439 -310 231
-580 429 -640 471 -46 32 -90 78 -155 162 -50 64 -98 119 -108 122 -9 2 -37 8
-62 11 -25 4 -106 23 -180 42 -188 48 -654 171 -720 190 -30 8 -91 24 -135 34
-44 10 -192 47 -330 83 -557 144 -1065 276 -1155 300 -296 77 -610 156 -628
156 -11 0 -192 -140 -413 -321z m725 131 c149 -38 339 -87 421 -109 83 -21
247 -64 365 -94 118 -31 267 -69 330 -86 63 -16 196 -50 295 -76 99 -25 212
-55 250 -65 39 -10 178 -46 310 -80 241 -61 341 -88 425 -111 l45 -13 -65 -7
c-145 -15 -261 -10 -355 15 -135 36 -515 135 -810 211 -99 25 -214 55 -255 66
-41 12 -145 38 -230 60 -85 21 -198 50 -250 64 -52 14 -219 57 -370 96 -151
39 -297 77 -324 85 -27 8 -60 14 -72 14 -21 0 -154 -105 -849 -673 -375 -306
-957 -780 -1114 -907 -92 -75 -192 -156 -222 -181 -30 -25 -115 -94 -189 -155
-514 -418 -997 -811 -1143 -931 -130 -106 -141 -113 -182 -113 -46 0 -66 13
-41 27 13 7 133 105 755 612 124 102 357 291 516 421 160 130 472 384 695 566
223 181 637 518 920 749 283 230 587 479 675 551 88 73 169 133 179 133 11 1
141 -30 290 -69z m2997 -917 c126 -165 529 -689 659 -858 25 -33 75 -98 111
-145 36 -47 178 -231 315 -410 138 -179 282 -366 320 -415 38 -50 394 -514
791 -1030 397 -517 722 -944 721 -950 0 -5 -127 -74 -282 -153 -420 -214 -774
-396 -931 -478 l-140 -73 -175 -31 c-96 -17 -258 -46 -360 -65 -102 -18 -302
-54 -445 -80 -143 -25 -280 -50 -305 -55 -25 -5 -48 -6 -51 -2 -3 4 -116 185
-251 402 -302 486 -690 1108 -1068 1715 -157 253 -306 492 -331 532 -54 89
-161 261 -204 328 -18 28 -81 129 -140 225 -60 96 -123 198 -140 225 -40 62
-244 389 -530 850 -119 193 -239 383 -266 423 -27 41 -49 77 -49 81 0 4 190
17 423 30 232 12 445 24 472 26 66 5 183 12 515 30 283 16 700 40 920 54 69 5
159 9 201 10 l76 1 144 -187z m-2660 -326 c114 -182 378 -608 589 -945 210
-338 380 -615 378 -618 -3 -2 -173 90 -379 204 -206 115 -410 228 -454 252
-44 23 -84 46 -90 50 -5 4 -41 24 -80 45 -38 21 -146 81 -240 133 -93 52 -207
115 -251 139 l-82 44 -493 -66 c-272 -36 -557 -74 -634 -84 -77 -10 -167 -22
-200 -25 -33 -4 -71 -9 -85 -11 -14 -2 -41 -6 -60 -9 -19 -3 -86 -12 -149 -21
-63 -8 -116 -13 -118 -11 -5 5 19 19 427 258 173 102 461 270 640 375 703 412
1065 623 1070 623 3 0 98 -150 211 -333z m3451 -267 c227 -167 490 -361 583
-430 94 -69 270 -200 393 -291 123 -90 324 -238 447 -329 123 -91 324 -239
447 -330 287 -211 1262 -931 1760 -1299 411 -304 405 -297 304 -300 -42 -1
-47 2 -441 294 -104 78 -287 212 -405 300 -118 87 -255 188 -305 225 -185 137
-325 240 -495 365 -96 71 -224 165 -285 210 -472 349 -557 412 -785 580 -96
71 -224 165 -285 210 -60 45 -182 135 -270 199 -153 113 -189 140 -350 259
-39 29 -120 88 -180 133 -61 44 -172 126 -247 182 -99 73 -155 123 -199 177
-86 105 -125 159 -111 154 6 -2 198 -141 424 -309z m5942 23 c147 -80 312
-168 365 -196 388 -207 871 -473 871 -480 0 -4 -30 -41 -67 -80 -38 -40 -111
-122 -164 -182 -181 -207 -518 -589 -730 -830 -68 -77 -144 -165 -169 -194
-56 -67 9 -25 -915 -586 -38 -24 -142 -87 -230 -140 -88 -54 -216 -131 -285
-173 -69 -41 -132 -80 -140 -87 -9 -8 -65 -15 -152 -19 -133 -6 -137 -5 -165
18 -64 53 -490 364 -521 380 -18 9 -32 23 -30 29 2 7 64 104 139 217 127 192
228 345 494 750 60 91 196 298 303 460 107 162 228 346 269 407 40 62 166 253
279 425 113 172 216 329 228 348 22 33 27 35 167 66 105 22 149 28 164 21 11
-5 141 -75 289 -154z m381 -7 c121 -36 351 -104 510 -151 514 -153 688 -205
800 -237 61 -17 114 -35 118 -39 15 -12 -122 -52 -163 -46 -21 3 -127 32 -237
65 -109 33 -315 95 -458 137 -426 125 -436 129 -637 236 -173 92 -217 119
-170 105 9 -3 116 -35 237 -70z m-1205 -31 c0 -2 -23 -38 -50 -79 -47 -68 -65
-84 -221 -192 -93 -66 -227 -159 -297 -208 -215 -152 -309 -218 -522 -366
-113 -79 -263 -185 -335 -235 -71 -50 -229 -161 -350 -245 -121 -85 -325 -228
-453 -318 l-232 -163 -31 22 c-30 21 -30 22 -12 39 10 10 538 381 1173 826
635 444 1191 834 1235 865 76 54 95 65 95 54z m2881 -591 c123 -283 458 -1056
579 -1334 515 -1188 624 -1440 641 -1477 32 -70 39 -93 30 -93 -25 0 -83 93
-143 232 -36 84 -155 358 -263 608 -334 771 -521 1202 -660 1520 -73 168 -159
367 -191 443 -32 75 -62 137 -66 137 -8 0 -569 -202 -620 -223 -22 -9 -100
-90 -228 -235 -183 -208 -195 -220 -212 -205 -10 9 -18 19 -18 23 0 3 98 118
218 255 l219 248 319 117 c175 65 323 117 329 116 5 -2 35 -61 66 -132z
m-1146 -770 c44 -42 123 -117 175 -168 52 -51 298 -285 545 -521 248 -236 452
-433 454 -438 2 -5 -23 8 -55 28 -33 21 -99 63 -148 93 -86 53 -154 113 -391
342 -259 251 -666 635 -674 635 -4 0 -115 -121 -245 -270 -131 -148 -246 -278
-256 -289 -16 -16 -100 -41 -100 -29 0 3 66 80 147 171 80 92 216 247 302 345
86 97 158 177 161 177 3 -1 41 -35 85 -76z m-14907 -175 c180 -27 340 -54 356
-58 l30 -7 -60 -34 c-34 -19 -72 -33 -89 -32 -16 0 -159 21 -318 45 l-287 45
-188 -88 c-718 -337 -726 -340 -887 -376 -157 -35 -185 -39 -170 -26 6 5 100
50 210 101 110 51 387 179 615 286 228 107 425 194 438 194 12 1 170 -22 350
-50z m13372 -1486 c0 -3 -27 -84 -59 -181 -33 -98 -83 -251 -111 -342 -109
-345 -183 -566 -196 -585 -10 -14 -35 -23 -87 -32 -124 -20 -110 -30 -181 120
-35 72 -159 325 -275 561 -117 235 -211 429 -209 431 3 2 235 9 778 21 157 4
286 7 287 8 6 4 53 3 53 -1z m261 -245 c78 -117 203 -302 276 -411 l134 -197
-26 -10 c-14 -6 -31 -10 -36 -10 -9 0 -429 -94 -673 -151 -70 -17 -134 -29
-141 -27 -8 2 36 153 145 496 171 534 167 522 174 522 2 0 68 -96 147 -212z
m-1437 70 c35 -73 153 -313 261 -533 108 -220 208 -423 221 -452 l23 -52 -122
-65 c-1309 -690 -1194 -633 -1292 -640 -171 -13 -1633 -136 -1686 -142 l-56
-6 -43 84 c-43 83 -80 155 -243 468 -251 485 -287 556 -287 567 0 6 60 42 133
79 385 195 1166 599 1190 616 27 19 350 58 1277 152 36 4 160 18 275 30 116
13 227 24 248 25 l38 1 63 -132z m1701 81 c44 -6 83 -13 86 -17 4 -4 27 -63
53 -132 33 -88 45 -132 41 -152 -4 -15 -10 -28 -13 -28 -4 0 -27 52 -51 115
l-43 115 -36 0 c-49 0 -207 21 -218 29 -5 3 -22 26 -38 50 l-28 44 83 -7 c46
-4 120 -11 164 -17z m610 -379 c94 -5 258 -15 365 -20 397 -22 448 -26 462
-37 7 -6 21 -25 31 -42 l17 -30 -47 -7 c-39 -6 -276 0 -438 11 -22 2 -98 6
-170 9 -71 4 -152 9 -180 11 -27 2 -108 7 -180 10 -71 3 -142 8 -158 11 -22 5
-29 1 -37 -18 -8 -17 -9 -7 -4 42 3 35 8 68 11 73 3 4 39 6 81 3 43 -4 154
-11 247 -16z m-341 -175 c-4 -8 -8 -15 -10 -15 -2 0 -4 7 -4 15 0 8 4 15 10
15 5 0 7 -7 4 -15z m-11 -70 c-3 -9 -8 -14 -10 -11 -3 3 -2 9 2 15 9 16 15 13
8 -4z m-5140 -565 c81 -157 211 -409 289 -560 77 -151 144 -279 149 -285 18
-18 9 -35 -18 -35 -26 0 -36 15 -156 248 -70 136 -161 312 -203 392 -41 80
-104 201 -139 270 -92 181 -66 165 -225 136 -74 -14 -148 -28 -165 -30 -16 -3
-129 -24 -250 -46 -567 -102 -669 -120 -675 -113 -13 16 -33 74 -27 80 6 5
168 36 492 93 66 12 262 48 435 80 173 32 322 57 330 56 9 0 75 -116 163 -286z
m-1679 -127 c-25 -71 -61 -173 -80 -228 -19 -55 -51 -147 -72 -205 l-39 -105
-286 -3 -287 -2 -4 22 c-9 41 -34 573 -27 580 3 3 103 14 221 23 296 22 342
25 440 34 47 5 106 9 132 10 l47 1 -45 -127z m305 -287 c78 -214 139 -391 136
-394 -3 -3 -18 -7 -33 -8 -39 -3 -234 -32 -402 -60 -80 -13 -148 -24 -152 -24
-4 0 15 64 43 143 28 78 70 198 94 267 122 352 166 472 171 468 1 -2 66 -178
143 -392z m-1225 217 c10 -37 19 -326 9 -320 -5 4 -13 57 -16 118 -4 62 -9
114 -12 117 -3 3 -127 -12 -276 -32 l-272 -38 -40 41 c-23 22 -39 42 -37 44 6
5 566 84 607 86 22 1 33 -4 37 -16z m-686 -190 c50 -54 89 -99 87 -101 -2 -2
-25 0 -51 4 -39 6 -58 16 -100 56 l-51 48 -111 -16 c-109 -16 -115 -16 -239 6
-71 12 -132 25 -138 29 -12 6 398 68 467 70 46 1 46 1 136 -96z"></path>
</g>
</svg><style>@media (prefers-color-scheme: light) { :root { filter: none; } }
</style></svg>